<svg id="SvgjsSvg1141" xmlns="http://www.w3.org/2000/svg" version="1.1" xmlns:xlink="http://www.w3.org/1999/xlink" xmlns:svgjs="http://svgjs.com/svgjs" width="41.631393012138915" height="33.5" viewBox="0 0 41.631393012138915 33.5"><title>Page 1</title><desc>Created with Avocode.</desc><defs id="SvgjsDefs1142"></defs><path id="SvgjsPath1143" d="M726.76 1042.96C726.6899999999999 1042.96 726.62 1042.9 726.61 1042.82L726.57 1042.1599999999999C726.37 1039.1299999999999 731.5400000000001 1037.35 732.87 1041.1899999999998C733.25 1042.2799999999997 733.69 1041.3099999999997 733.76 1042.32C733.77 1042.46 733.67 1042.48 733.55 1042.49L732.63 1042.55C732.71 1043.59 732.1899999999999 1044.79 731.22 1045.33C729.9 1046.07 728.24 1045.6 727.5 1044.28C727.29 1043.8999999999999 727.18 1043.35 727.16 1042.93ZM750.11 1063.61C748.67 1063.61 747.51 1064.77 747.51 1066.2099999999998C747.51 1066.2772999999997 747.51257 1066.3439899999998 747.51762 1066.4099999999999H744.05C742.81 1066.36 742.2099999999999 1065.6299999999999 742.1099999999999 1064.37L741.4448999999998 1058.9086699999998L741.5699999999998 1059.0299999999997L741.4723699999998 1058.5399999999997H760.9999999999999V1059.3699999999997L757.3599999999999 1065.0799999999997C756.6899999999999 1065.9699999999998 755.7599999999999 1066.3699999999997 754.6599999999999 1066.4099999999996H752.6923899999998C752.6974399999998 1066.3439899999996 752.6999999999998 1066.2772999999995 752.6999999999998 1066.2099999999996C752.6999999999998 1064.7699999999995 751.5399999999998 1063.6099999999997 750.1099999999998 1063.6099999999997ZM741.4449 1058.90867L737.64419 1055.2226C737.67712 1055.12751 737.7007 1055.03116 737.71335 1054.93612L740.04999 1055.38C740.55999 1055.48 740.93999 1055.8600000000001 741.03999 1056.3700000000001L741.47236 1058.5400000000002H741.39999ZM737.26 1054.85L737.71336 1054.9361199999998C737.7622799999999 1054.5686899999998 737.64797 1054.2206899999999 737.28 1054.0399999999997L734.31 1052.8799999999997L731.9499999999999 1047.8599999999997C731.4699999999999 1046.8799999999997 730.28 1046.1099999999997 729.1099999999999 1046.0699999999997C727.2599999999999 1046.0099999999998 726.2299999999999 1047.0399999999997 725.9099999999999 1048.7199999999998L725.2299999999999 1056.0299999999997C724.9999999999999 1057.3199999999997 725.18 1059.3499999999997 724.8499999999999 1061.3299999999997L722.0099999999999 1066.4899999999998C721.8599999999999 1066.8099999999997 721.4299999999998 1069.3899999999999 721.9399999999998 1069.4499999999998H726.8899999999999C727.2099999999999 1069.4299999999998 727.6599999999999 1067.2199999999998 727.0199999999999 1067.0099999999998L725.8699999999999 1066.6899999999998L728.4199999999998 1062.2899999999997L728.6099999999999 1060.3499999999997L728.6399999999999 1060.2999999999997L730.0799999999999 1061.4499999999998C730.27 1061.6799999999998 730.3799999999999 1061.9599999999998 730.3799999999999 1062.2999999999997C730.3799999999999 1063.0099999999998 730.0799999999999 1069.4299999999998 730.5599999999998 1069.4399999999998H735.3799999999999C735.7199999999999 1069.4199999999998 735.8599999999999 1067.2099999999998 735.1799999999998 1066.9999999999998L733.4399999999998 1066.5399999999997L733.4299999999998 1061.2499999999998C733.4199999999998 1060.9599999999998 733.3499999999998 1060.6899999999998 733.2299999999998 1060.4399999999998C732.6699999999998 1059.35 731.3699999999998 1057.62 730.6899999999998 1056.5299999999997L731.4398599999998 1053.2805899999998L732.1199999999999 1054.4699999999998C732.2999999999998 1054.8399999999997 732.5499999999998 1055.0099999999998 732.8899999999999 1055.1599999999999L736.1399999999999 1056.1699999999998C736.7440699999999 1056.4749699999998 737.4169299999999 1055.8787799999998 737.6441899999999 1055.2225999999998ZM747.51762 1066.41H752.6923899999999C752.5902299999999 1067.7466100000001 751.4727099999999 1068.8000000000002 750.1099999999999 1068.8000000000002C748.73777 1068.8000000000002 747.6197999999999 1067.7466100000001 747.5176199999999 1066.41ZM742.95 1058.43L744.69 1055.5600000000002H747.4000000000001L750.8000000000001 1053.3200000000002H753.2400000000001L755.6100000000001 1055.5600000000002L758.2300000000001 1055.8100000000002L760.5900000000001 1058.43Z " fill-opacity="0" fill="#ffffff" stroke-dashoffset="0" stroke-linejoin="miter" stroke-linecap="butt" stroke-opacity="1" stroke="#527282" stroke-miterlimit="50" stroke-width="1.5" transform="matrix(1,0,0,1,-720.1843034939305,-1037.25)"></path></svg>