<svg id="SvgjsSvg1025" xmlns="http://www.w3.org/2000/svg" version="1.1" xmlns:xlink="http://www.w3.org/1999/xlink" xmlns:svgjs="http://svgjs.com/svgjs" width="26" height="36" viewBox="0 0 26 36"><title>Fill 1</title><desc>Created with Avocode.</desc><defs id="SvgjsDefs1026"></defs><path id="SvgjsPath1027" d="M133.13 920.44C132.65 915.85 135.71 914.1 136.03 913.9300000000001C136.18 913.84 136.36 913.7900000000001 136.54 913.82C137 913.87 137.32999999999998 914.2700000000001 137.26999999999998 914.7C137.26999999999998 914.71 136.86999999999998 917.33 138.29 919.37C138.7 919.14 139.10999999999999 918.84 139.51 918.4C140.14 917.6999999999999 140.76 916.6 141.39999999999998 914.76C141.48 914.49 141.7 914.28 141.98999999999998 914.21C142.42999999999998 914.11 142.87999999999997 914.37 142.98999999999998 914.8000000000001C143.35 916.2400000000001 143.54999999999998 917.2500000000001 143.45999999999998 918.2600000000001C143.40999999999997 918.7100000000002 143.30999999999997 919.1400000000001 143.14999999999998 919.5900000000001C144.23999999999998 919.0500000000002 145.09999999999997 918.3300000000002 145.74999999999997 917.5100000000001C146.59999999999997 916.4300000000001 147.10999999999999 915.1600000000001 147.31999999999996 913.8000000000001C147.52999999999997 912.4300000000001 147.41999999999996 910.96 147.03999999999996 909.5500000000001C146.53999999999996 907.69 145.54999999999995 905.9100000000001 144.16999999999996 904.4900000000001C144.08999999999995 904.7700000000001 143.97999999999996 905.0400000000001 143.84999999999997 905.3000000000001C143.45999999999998 906.0000000000001 142.82999999999996 906.6 141.91999999999996 907.0400000000001C141.81999999999996 907.09 141.70999999999995 907.1300000000001 141.58999999999995 907.1400000000001C141.13999999999996 907.19 140.72999999999993 906.8700000000001 140.67999999999995 906.4300000000001C140.41999999999996 904.1500000000001 139.92999999999995 902.3000000000001 138.94999999999996 900.72C138.28999999999996 899.64 137.37999999999997 898.6700000000001 136.13999999999996 897.76C137.16999999999996 901.0699999999999 137.67999999999995 904.9399999999999 133.55999999999995 907.13C133.30999999999995 907.29 132.97999999999993 907.31 132.68999999999994 907.15C131.68999999999994 906.5799999999999 130.86999999999995 905.89 130.36999999999995 904.88C130.14999999999995 904.41 129.97999999999996 903.9 129.90999999999994 903.31C128.73999999999995 904.8599999999999 127.81999999999994 906.56 127.25999999999993 908.28C126.66999999999993 910.0899999999999 126.48999999999994 911.93 126.80999999999993 913.63C127.11999999999993 915.31 127.93999999999993 916.87 129.37999999999994 918.18C130.33999999999995 919.06 131.56999999999994 919.8199999999999 133.12999999999994 920.4399999999999ZM133.93 922.42C131.5 921.68 129.63 920.62 128.24 919.3499999999999C126.54 917.8 125.56 915.93 125.18 913.92C124.81 911.9499999999999 125.02000000000001 909.8499999999999 125.69000000000001 907.8V907.79C126.53000000000002 905.17 128.13000000000002 902.61 130.19 900.4699999999999C130.51 900.1499999999999 131.03 900.1399999999999 131.37 900.4399999999999C131.57 900.6199999999999 131.65 900.89 131.62 901.14C131.4 902.52 131.51 903.48 131.86 904.18C132.13000000000002 904.7299999999999 132.58 905.15 133.13000000000002 905.51C136.46000000000004 903.39 134.93000000000004 899.15 133.85000000000002 896.16L133.81000000000003 896.0699999999999C133.66000000000003 895.66 133.89000000000004 895.1899999999999 134.32000000000002 895.04C134.57000000000002 894.9599999999999 134.82000000000002 895 135.03000000000003 895.12C137.57000000000002 896.55 139.25000000000003 898.08 140.37000000000003 899.89C141.28000000000003 901.36 141.81000000000003 902.99 142.14000000000004 904.89C142.23000000000005 904.78 142.31000000000003 904.66 142.38000000000005 904.54C142.64000000000004 904.0699999999999 142.71000000000006 903.5 142.62000000000006 902.89C142.57000000000005 902.4499999999999 142.89000000000007 902.04 143.34000000000006 901.99C143.56000000000006 901.96 143.78000000000006 902.02 143.95000000000007 902.14C146.2800000000001 903.89 147.91000000000008 906.4399999999999 148.63000000000008 909.14C149.08000000000007 910.76 149.19000000000008 912.4499999999999 148.9600000000001 914.04C148.7100000000001 915.66 148.10000000000008 917.1899999999999 147.0700000000001 918.48C145.8600000000001 920.02 144.0800000000001 921.21 141.6900000000001 921.83C141.24000000000012 921.95 140.7900000000001 921.69 140.6700000000001 921.26C140.6100000000001 921.04 140.6500000000001 920.81 140.7700000000001 920.63C141.4200000000001 919.6 141.7300000000001 918.87 141.8100000000001 918.12L141.82000000000008 917.92C141.47000000000008 918.55 141.11000000000007 919.05 140.76000000000008 919.4499999999999C139.96000000000006 920.3399999999999 139.18000000000006 920.7499999999999 138.39000000000007 921.1099999999999C138.05000000000007 921.2699999999999 137.64000000000007 921.1599999999999 137.41000000000008 920.8899999999999C136.1500000000001 919.4799999999999 135.73000000000008 917.7699999999999 135.61000000000007 916.4699999999999C134.95000000000007 917.41 134.39000000000007 918.9799999999999 134.98000000000008 921.4699999999999C135.08000000000007 921.8999999999999 134.8100000000001 922.3299999999999 134.36000000000007 922.43C134.21000000000006 922.4599999999999 134.06000000000006 922.4599999999999 133.93000000000006 922.41ZM132.4 926.06L130.19 926.63C129.46 926.82 129.02 927.56 129.22 928.27C129.41 928.99 130.17 929.41 130.9 929.22L137.73000000000002 927.44L144.56000000000003 929.22C145.29000000000002 929.4100000000001 146.05000000000004 928.99 146.25000000000003 928.27C146.44000000000003 927.56 146.01000000000002 926.8199999999999 145.26000000000002 926.63L143.06000000000003 926.06L145.26000000000002 925.4799999999999C146.01000000000002 925.2799999999999 146.44000000000003 924.55 146.25000000000003 923.8399999999999C146.05000000000004 923.1199999999999 145.29000000000002 922.6899999999999 144.56000000000003 922.8799999999999L137.73000000000002 924.6599999999999L130.9 922.8799999999999C130.17000000000002 922.6899999999998 129.41 923.1199999999999 129.22 923.8399999999999C129.02 924.55 129.46 925.28 130.19 925.4799999999999Z " fill="#527282" fill-opacity="1" transform="matrix(1,0,0,1,-124,-894)"></path></svg>