<svg id="SvgjsSvg1064" xmlns="http://www.w3.org/2000/svg" version="1.1" xmlns:xlink="http://www.w3.org/1999/xlink" xmlns:svgjs="http://svgjs.com/svgjs" width="29" height="32" viewBox="0 0 29 32"><title>Fill 1</title><desc>Created with Avocode.</desc><defs id="SvgjsDefs1065"></defs><path id="SvgjsPath1066" d="M143.44 1415V1414.99C141.82 1413.39 139.57 1412.4 137.09 1412.4C134.62 1412.4 132.37 1413.4 130.74 1415C129.97 1415.76 129.33 1416.65 128.88 1417.64C129.04 1417.47 129.19 1417.3100000000002 129.35999999999999 1417.15C131.33999999999997 1415.19 134.07999999999998 1413.98 137.08999999999997 1413.98C140.09999999999997 1413.98 142.83999999999997 1415.19 144.81999999999996 1417.15C144.98999999999995 1417.3100000000002 145.14999999999998 1417.47 145.29999999999995 1417.64C144.83999999999995 1416.65 144.20999999999995 1415.76 143.43999999999994 1415ZM146.17 1425.41C146.08999999999997 1425.41 146.01 1425.44 145.95999999999998 1425.49C145.92999999999998 1425.52 145.90999999999997 1425.55 145.89999999999998 1425.58C145.89 1425.61 145.87999999999997 1425.6499999999999 145.87999999999997 1425.6899999999998V1430.4099999999999C145.87999999999997 1430.4899999999998 145.90999999999997 1430.56 145.95999999999998 1430.61C145.98999999999998 1430.6399999999999 146.01999999999998 1430.6599999999999 146.05999999999997 1430.6699999999998C146.08999999999997 1430.6899999999998 146.11999999999998 1430.6899999999998 146.17 1430.6899999999998H148.45C148.48999999999998 1430.6899999999998 148.51999999999998 1430.6899999999998 148.54 1430.6799999999998L148.56 1430.6699999999998C148.59 1430.6599999999999 148.62 1430.6399999999999 148.66 1430.61C148.68 1430.58 148.71 1430.54 148.72 1430.52C148.73 1430.49 148.74 1430.46 148.74 1430.41V1425.69C148.74 1425.66 148.74 1425.63 148.73000000000002 1425.6000000000001L148.72000000000003 1425.5800000000002C148.71000000000004 1425.5500000000002 148.68000000000004 1425.5200000000002 148.66000000000003 1425.4900000000002C148.62000000000003 1425.4700000000003 148.59000000000003 1425.4400000000003 148.56000000000003 1425.4300000000003V1425.4200000000003C148.54000000000002 1425.4100000000003 148.50000000000003 1425.4100000000003 148.45000000000002 1425.4100000000003ZM125.73 1425.41C125.65 1425.41 125.58 1425.44 125.53 1425.49C125.5 1425.52 125.48 1425.55 125.47 1425.58C125.46 1425.61 125.45 1425.6499999999999 125.45 1425.6899999999998V1430.4099999999999C125.45 1430.4899999999998 125.48 1430.56 125.53 1430.61C125.56 1430.6399999999999 125.59 1430.6599999999999 125.63 1430.6699999999998C125.64999999999999 1430.6899999999998 125.69 1430.6899999999998 125.72999999999999 1430.6899999999998H128.01999999999998C128.05999999999997 1430.6899999999998 128.07999999999998 1430.6899999999998 128.10999999999999 1430.6799999999998L128.13 1430.6699999999998C128.16 1430.6599999999999 128.19 1430.6399999999999 128.22 1430.61C128.25 1430.58 128.27 1430.54 128.29 1430.52C128.29999999999998 1430.49 128.29999999999998 1430.46 128.29999999999998 1430.41V1425.69C128.29999999999998 1425.66 128.29999999999998 1425.63 128.29999999999998 1425.6000000000001L128.29 1425.5800000000002C128.26999999999998 1425.5500000000002 128.25 1425.5200000000002 128.22 1425.4900000000002C128.19 1425.4700000000003 128.16 1425.4400000000003 128.13 1425.4300000000003V1425.4200000000003C128.1 1425.4100000000003 128.07 1425.4100000000003 128.01999999999998 1425.4100000000003ZM136.15 1438.77C136.15 1439.29 136.57 1439.7 137.09 1439.7C137.61 1439.7 138.03 1439.28 138.03 1438.77C138.03 1438.26 137.62 1437.85 137.09 1437.85C136.57 1437.85 136.15 1438.26 136.15 1438.77ZM125.65 1421.24C125.65 1418.15 126.94000000000001 1415.34 129.01000000000002 1413.3H129.02L129.04000000000002 1413.28C131.11 1411.26 133.96 1410 137.09000000000003 1410C140.24000000000004 1410 143.10000000000002 1411.26 145.17000000000004 1413.3C147.24000000000004 1415.33 148.53000000000006 1418.1499999999999 148.53000000000006 1421.24V1423.01C148.86000000000007 1423.02 149.19000000000005 1423.09 149.50000000000006 1423.21C149.84000000000006 1423.3400000000001 150.13000000000005 1423.55 150.38000000000005 1423.79C150.63000000000005 1424.04 150.84000000000006 1424.33 150.97000000000006 1424.6599999999999L151.00000000000006 1424.7399999999998C151.12000000000006 1425.0399999999997 151.18000000000006 1425.3599999999997 151.18000000000006 1425.6899999999998V1430.4099999999999C151.18000000000006 1430.7699999999998 151.11000000000007 1431.11 150.97000000000006 1431.4399999999998C150.84000000000006 1431.7699999999998 150.63000000000005 1432.07 150.38000000000005 1432.3099999999997C150.13000000000005 1432.5499999999997 149.84000000000006 1432.7499999999998 149.50000000000006 1432.8899999999996L149.42000000000004 1432.9199999999996C149.11000000000004 1433.0299999999995 148.78000000000006 1433.0999999999997 148.45000000000005 1433.0999999999997H148.01000000000005C147.85000000000005 1434.6299999999997 146.87000000000006 1436.0199999999998 145.34000000000006 1437.1199999999997C143.84000000000006 1438.1999999999996 141.77000000000007 1439.0099999999998 139.42000000000007 1439.3999999999996C139.13000000000008 1440.4099999999996 138.17000000000007 1441.1399999999996 137.09000000000006 1441.1399999999996C135.77000000000007 1441.1399999999996 134.68000000000006 1440.0699999999997 134.68000000000006 1438.7699999999998C134.68000000000006 1437.4699999999998 135.77000000000007 1436.3999999999999 137.09000000000006 1436.3999999999999C138.11000000000007 1436.3999999999999 139.00000000000006 1437.04 139.35000000000005 1437.9499999999998C141.40000000000006 1437.59 143.19000000000005 1436.8799999999999 144.48000000000005 1435.9599999999998C145.61000000000004 1435.1399999999999 146.36000000000004 1434.1499999999999 146.53000000000006 1433.1H146.17000000000004C145.80000000000004 1433.1 145.45000000000005 1433.02 145.12000000000003 1432.8899999999999C144.78000000000003 1432.7499999999998 144.48000000000005 1432.55 144.23000000000005 1432.31C143.74000000000004 1431.82 143.43000000000004 1431.1499999999999 143.43000000000004 1430.4099999999999V1425.6899999999998C143.43000000000004 1425.34 143.51000000000005 1424.9899999999998 143.64000000000004 1424.6699999999998V1424.6599999999999C143.78000000000003 1424.33 143.99000000000004 1424.04 144.23000000000005 1423.79C144.71000000000004 1423.33 145.36000000000004 1423.03 146.09000000000006 1423.01V1421.8C145.61000000000007 1420.4199999999998 144.81000000000006 1419.18 143.79000000000005 1418.1599999999999C142.07000000000005 1416.4799999999998 139.70000000000005 1415.4299999999998 137.09000000000006 1415.4299999999998C134.49000000000007 1415.4299999999998 132.11000000000007 1416.4799999999998 130.40000000000006 1418.1599999999999C129.37000000000006 1419.1799999999998 128.57000000000005 1420.4199999999998 128.10000000000005 1421.8V1423.01C128.44000000000005 1423.02 128.76000000000005 1423.09 129.06000000000006 1423.21H129.07000000000005C129.41000000000005 1423.3400000000001 129.70000000000005 1423.55 129.95000000000005 1423.79C130.20000000000005 1424.04 130.40000000000003 1424.33 130.54000000000005 1424.6599999999999L130.57000000000005 1424.7399999999998C130.69000000000005 1425.0399999999997 130.75000000000006 1425.3599999999997 130.75000000000006 1425.6899999999998V1430.4099999999999C130.75000000000006 1430.7699999999998 130.68000000000006 1431.11 130.54000000000005 1431.4399999999998C130.40000000000006 1431.7699999999998 130.20000000000005 1432.07 129.95000000000005 1432.3099999999997C129.70000000000005 1432.5499999999997 129.41000000000005 1432.7499999999998 129.07000000000005 1432.8899999999996L128.99000000000004 1432.9199999999996C128.68000000000004 1433.0299999999995 128.35000000000005 1433.0999999999997 128.02000000000004 1433.0999999999997H125.73000000000003C125.37000000000003 1433.0999999999997 125.02000000000004 1433.0199999999998 124.70000000000003 1432.8899999999996H124.69000000000003C124.35000000000002 1432.7499999999995 124.05000000000003 1432.5499999999997 123.80000000000003 1432.3099999999997C123.31000000000003 1431.8199999999997 123.00000000000003 1431.1499999999996 123.00000000000003 1430.4099999999996V1425.6899999999996C123.00000000000003 1425.3399999999997 123.08000000000003 1424.9899999999996 123.21000000000002 1424.6699999999996V1424.6599999999996C123.35000000000002 1424.3299999999997 123.55000000000003 1424.0399999999997 123.80000000000003 1423.7899999999997C124.28000000000003 1423.3299999999997 124.93000000000002 1423.0299999999997 125.65000000000002 1423.0099999999998Z " fill="#527282" fill-opacity="1" transform="matrix(1,0,0,1,-123,-1410)"></path></svg>