<svg id="SvgjsSvg1147" xmlns="http://www.w3.org/2000/svg" version="1.1" xmlns:xlink="http://www.w3.org/1999/xlink" xmlns:svgjs="http://svgjs.com/svgjs" width="45" height="37" viewBox="0 0 45 37"><title>Page 1</title><desc>Created with Avocode.</desc><defs id="SvgjsDefs1148"></defs><path id="SvgjsPath1149" d="M725.6 1217L724.15 1220.8H718V1225.97H724.25V1247.81H723.21L721.76 1249.8999999999999V1251.6799999999998H719.38V1253.4899999999998H762.5V1251.6799999999998H760.14V1223.0199999999998H748.35V1236.7399999999998H750.1700000000001V1224.8299999999997H758.33V1251.6799999999996H734.6700000000001V1241.4299999999996H742.07V1239.6099999999997H732.85V1251.6799999999996H732V1249.8999999999996L730.55 1247.8099999999997H729.5V1225.9699999999998H736.22V1229.2199999999998H733.6V1234.2599999999998H740.69V1229.2199999999998H738.0300000000001V1224.1599999999999H727.69V1249.62H729.6L730.19 1250.4599999999998V1251.6799999999998H723.57V1250.4699999999998L724.1600000000001 1249.62H726.07V1224.1599999999999H719.8100000000001V1222.61H725.4000000000001L726.8500000000001 1218.81H726.9300000000002L728.5300000000002 1222.61H739.6200000000002L740.4000000000002 1223.1499999999999V1224.1599999999999H738.4000000000002V1225.9699999999998H742.2200000000003V1222.1999999999998L740.1800000000003 1220.7999999999997H729.7300000000002L728.1300000000002 1216.9999999999998ZM735.41 1231.04H738.88V1232.44H735.41ZM751.26 1225.96V1231.1100000000001H753.0699999999999V1227.7700000000002H756.9V1225.9600000000003ZM718.01 1230.33H723.68V1226.4399999999998H718.01ZM719.83 1228.25H721.87V1228.52H719.83ZM751.26 1231.75V1236.9H753.0699999999999V1233.5600000000002H756.9V1231.7500000000002ZM751.26 1237.53V1242.69H753.0699999999999V1239.3500000000001H756.9V1237.5300000000002ZM743.62 1237.53V1242.69H745.43V1239.3500000000001H749.26V1237.5300000000002ZM751.26 1243.32V1248.47H753.0699999999999V1245.14H756.9V1243.3200000000002ZM743.62 1243.32V1248.47H745.43V1245.14H749.26V1243.3200000000002ZM741.62 1243.32V1245.1399999999999H737.79V1248.4699999999998H735.98V1243.3199999999997Z " fill="#527282" fill-opacity="1" transform="matrix(1,0,0,1,-718,-1217)"></path></svg>