<svg id="SvgjsSvg1053" xmlns="http://www.w3.org/2000/svg" version="1.1" xmlns:xlink="http://www.w3.org/1999/xlink" xmlns:svgjs="http://svgjs.com/svgjs" width="37.25" height="35.25" viewBox="0 0 37.25 35.25"><title>Fill 1</title><desc>Created with Avocode.</desc><defs id="SvgjsDefs1054"></defs><path id="SvgjsPath1055" d="M144.56 1296.63H133.52V1271.16H144.56C145.2 1271.16 145.72 1271.68 145.72 1272.3200000000002V1295.4700000000003C145.72 1296.1100000000004 145.2 1296.6300000000003 144.56 1296.6300000000003ZM120.16 1295.47V1272.32C120.16 1271.6799999999998 120.67999999999999 1271.1599999999999 121.32 1271.1599999999999H132.35999999999999V1296.6299999999999H121.32C120.67999999999999 1296.6299999999999 120.16 1296.11 120.16 1295.4699999999998ZM121.32 1270C120.05 1270 119 1271.04 119 1272.32V1295.47C119 1296.75 120.05 1297.79 121.32 1297.79H144.56C145.84 1297.79 146.88 1296.75 146.88 1295.47V1272.32C146.88 1271.04 145.84 1270 144.56 1270Z " fill="#527282" fill-opacity="1" transform="matrix(1,0,0,1,-118.75,-1263)"></path><path id="SvgjsPath1056" d="M144.56 1296.63H133.52V1271.16H144.56C145.2 1271.16 145.72 1271.68 145.72 1272.3200000000002V1295.4700000000003C145.72 1296.1100000000004 145.2 1296.6300000000003 144.56 1296.6300000000003ZM120.16 1295.47V1272.32C120.16 1271.6799999999998 120.67999999999999 1271.1599999999999 121.32 1271.1599999999999H132.35999999999999V1296.6299999999999H121.32C120.67999999999999 1296.6299999999999 120.16 1296.11 120.16 1295.4699999999998ZM121.32 1270C120.05 1270 119 1271.04 119 1272.32V1295.47C119 1296.75 120.05 1297.79 121.32 1297.79H144.56C145.84 1297.79 146.88 1296.75 146.88 1295.47V1272.32C146.88 1271.04 145.84 1270 144.56 1270Z " fill-opacity="0" fill="#ffffff" stroke-dashoffset="0" stroke-linejoin="miter" stroke-linecap="butt" stroke-opacity="1" stroke="#527282" stroke-miterlimit="50" stroke-width="1" transform="matrix(1,0,0,1,-118.75,-1263)"></path><path id="SvgjsPath1057" d="M130.16 1265.88H136.65V1264.16H130.16ZM129.8 1267.04C129.36 1267.04 129 1266.68 129 1266.24V1263.8C129 1263.36 129.36 1263 129.8 1263H137.01000000000002C137.45000000000002 1263 137.81000000000003 1263.36 137.81000000000003 1263.8V1266.24C137.81000000000003 1266.68 137.45000000000002 1267.04 137.01000000000002 1267.04Z " fill="#527282" fill-opacity="1" transform="matrix(1,0,0,1,-118.75,-1263)"></path><path id="SvgjsPath1058" d="M152.9 1278.87L154.29 1281.6299999999999H151.51999999999998ZM155.23 1282.79C155.54999999999998 1282.79 155.81 1282.53 155.81 1282.21C155.81 1282.1000000000001 155.78 1281.99 155.72 1281.9L153.42 1277.3200000000002C153.32999999999998 1277.1200000000001 153.11999999999998 1277.0000000000002 152.89999999999998 1277.0000000000002C152.67999999999998 1277.0000000000002 152.48 1277.1200000000001 152.37999999999997 1277.3200000000002L150.05999999999997 1281.9500000000003C149.96999999999997 1282.1300000000003 149.97999999999996 1282.3400000000004 150.08999999999997 1282.5100000000002C150.18999999999997 1282.6900000000003 150.37999999999997 1282.7900000000002 150.57999999999998 1282.7900000000002Z " fill="#527282" fill-opacity="1" transform="matrix(1,0,0,1,-118.75,-1263)"></path><path id="SvgjsPath1059" d="M152.91 1287.92L151.52 1285.16H154.29000000000002ZM150.58 1284C150.26000000000002 1284 150 1284.26 150 1284.58C150 1284.6899999999998 150.03 1284.8 150.09 1284.8899999999999L152.39000000000001 1289.4699999999998C152.49 1289.6699999999998 152.69000000000003 1289.7899999999997 152.91000000000003 1289.7899999999997C153.13000000000002 1289.7899999999997 153.33 1289.6699999999998 153.43000000000004 1289.4699999999998L155.75000000000003 1284.8399999999997C155.84000000000003 1284.6599999999996 155.83000000000004 1284.4499999999996 155.73000000000002 1284.2699999999998C155.62 1284.0999999999997 155.43 1283.9999999999998 155.23000000000002 1283.9999999999998Z " fill="#527282" fill-opacity="1" transform="matrix(1,0,0,1,-118.75,-1263)"></path></svg>