<svg id="SvgjsSvg1092" xmlns="http://www.w3.org/2000/svg" version="1.1" xmlns:xlink="http://www.w3.org/1999/xlink" xmlns:svgjs="http://svgjs.com/svgjs" width="34.639478314880606" height="36.69999999999982" viewBox="0 0 34.639478314880606 36.69999999999982"><title>Fill 1</title><desc>Created with Avocode.</desc><defs id="SvgjsDefs1093"></defs><path id="SvgjsPath1094" d="M136.78 1708.12C136.78 1709.4099999999999 137.83 1710.4499999999998 139.12 1710.4499999999998C140.41 1710.4499999999998 141.46 1709.4099999999999 141.46 1708.12C141.46 1706.83 140.41 1705.78 139.12 1705.78C137.83 1705.78 136.78 1706.83 136.78 1708.12ZM136 1708.12C136 1706.3999999999999 137.4 1705 139.12 1705C140.84 1705 142.24 1706.4 142.24 1708.12C142.24 1709.84 140.84 1711.2299999999998 139.12 1711.2299999999998C137.4 1711.2299999999998 136 1709.8399999999997 136 1708.12Z " fill="#527282" fill-opacity="1" transform="matrix(1,0,0,1,-120.64999999999999,-1698.65)"></path><path id="SvgjsPath1095" d="M136.78 1708.12C136.78 1709.4099999999999 137.83 1710.4499999999998 139.12 1710.4499999999998C140.41 1710.4499999999998 141.46 1709.4099999999999 141.46 1708.12C141.46 1706.83 140.41 1705.78 139.12 1705.78C137.83 1705.78 136.78 1706.83 136.78 1708.12ZM136 1708.12C136 1706.3999999999999 137.4 1705 139.12 1705C140.84 1705 142.24 1706.4 142.24 1708.12C142.24 1709.84 140.84 1711.2299999999998 139.12 1711.2299999999998C137.4 1711.2299999999998 136 1709.8399999999997 136 1708.12Z " fill-opacity="0" fill="#ffffff" stroke-dashoffset="0" stroke-linejoin="miter" stroke-linecap="butt" stroke-opacity="1" stroke="#527282" stroke-miterlimit="50" stroke-width="0.7" transform="matrix(1,0,0,1,-120.64999999999999,-1698.65)"></path><path id="SvgjsPath1096" d="M125.78 1702.12C125.78 1703.4099999999999 126.83 1704.4499999999998 128.12 1704.4499999999998C129.41 1704.4499999999998 130.46 1703.4099999999999 130.46 1702.12C130.46 1700.83 129.41 1699.78 128.12 1699.78C126.83 1699.78 125.78 1700.83 125.78 1702.12ZM125 1702.12C125 1700.3999999999999 126.4 1699 128.12 1699C129.84 1699 131.24 1700.4 131.24 1702.12C131.24 1703.84 129.84 1705.2299999999998 128.12 1705.2299999999998C126.4 1705.2299999999998 125 1703.8399999999997 125 1702.12Z " fill="#527282" fill-opacity="1" transform="matrix(1,0,0,1,-120.64999999999999,-1698.65)"></path><path id="SvgjsPath1097" d="M125.78 1702.12C125.78 1703.4099999999999 126.83 1704.4499999999998 128.12 1704.4499999999998C129.41 1704.4499999999998 130.46 1703.4099999999999 130.46 1702.12C130.46 1700.83 129.41 1699.78 128.12 1699.78C126.83 1699.78 125.78 1700.83 125.78 1702.12ZM125 1702.12C125 1700.3999999999999 126.4 1699 128.12 1699C129.84 1699 131.24 1700.4 131.24 1702.12C131.24 1703.84 129.84 1705.2299999999998 128.12 1705.2299999999998C126.4 1705.2299999999998 125 1703.8399999999997 125 1702.12Z " fill-opacity="0" fill="#ffffff" stroke-dashoffset="0" stroke-linejoin="miter" stroke-linecap="butt" stroke-opacity="1" stroke="#527282" stroke-miterlimit="50" stroke-width="0.7" transform="matrix(1,0,0,1,-120.64999999999999,-1698.65)"></path><path id="SvgjsPath1098" d="M139.78 1726.69C139.78 1727.2 140.19 1727.6100000000001 140.69 1727.6100000000001C141.2 1727.6100000000001 141.60999999999999 1727.2 141.60999999999999 1726.69C141.60999999999999 1726.19 141.2 1725.78 140.69 1725.78C140.19 1725.78 139.78 1726.19 139.78 1726.69ZM139 1726.69C139 1725.76 139.76 1725 140.69 1725C141.63 1725 142.39 1725.76 142.39 1726.69C142.39 1727.63 141.63 1728.39 140.69 1728.39C139.76 1728.39 139 1727.63 139 1726.69Z " fill="#527282" fill-opacity="1" transform="matrix(1,0,0,1,-120.64999999999999,-1698.65)"></path><path id="SvgjsPath1099" d="M139.78 1726.69C139.78 1727.2 140.19 1727.6100000000001 140.69 1727.6100000000001C141.2 1727.6100000000001 141.60999999999999 1727.2 141.60999999999999 1726.69C141.60999999999999 1726.19 141.2 1725.78 140.69 1725.78C140.19 1725.78 139.78 1726.19 139.78 1726.69ZM139 1726.69C139 1725.76 139.76 1725 140.69 1725C141.63 1725 142.39 1725.76 142.39 1726.69C142.39 1727.63 141.63 1728.39 140.69 1728.39C139.76 1728.39 139 1727.63 139 1726.69Z " fill-opacity="0" fill="#ffffff" stroke-dashoffset="0" stroke-linejoin="miter" stroke-linecap="butt" stroke-opacity="1" stroke="#527282" stroke-miterlimit="50" stroke-width="0.7" transform="matrix(1,0,0,1,-120.64999999999999,-1698.65)"></path><path id="SvgjsPath1100" d="M134.78 1727.03C134.78 1730.47 137.59 1733.28 141.03 1733.28C144.48 1733.28 147.29 1730.47 147.29 1727.03C147.29 1726.18 147.12 1725.35 146.79 1724.58C146.17 1723.12 145.03 1721.97 143.57999999999998 1721.32C142.77999999999997 1720.96 141.92 1720.78 141.02999999999997 1720.78C137.58999999999997 1720.78 134.77999999999997 1723.58 134.77999999999997 1727.03ZM134 1727.03C134 1723.1499999999999 137.16 1720 141.03 1720C142.03 1720 143 1720.2 143.9 1720.61C145.53 1721.33 146.81 1722.6399999999999 147.51000000000002 1724.27C147.88000000000002 1725.15 148.07000000000002 1726.07 148.07000000000002 1727.03C148.07000000000002 1730.8999999999999 144.91000000000003 1734.06 141.03000000000003 1734.06C137.16000000000003 1734.06 134.00000000000003 1730.8999999999999 134.00000000000003 1727.03Z " fill="#527282" fill-opacity="1" transform="matrix(1,0,0,1,-120.64999999999999,-1698.65)"></path><path id="SvgjsPath1101" d="M134.78 1727.03C134.78 1730.47 137.59 1733.28 141.03 1733.28C144.48 1733.28 147.29 1730.47 147.29 1727.03C147.29 1726.18 147.12 1725.35 146.79 1724.58C146.17 1723.12 145.03 1721.97 143.57999999999998 1721.32C142.77999999999997 1720.96 141.92 1720.78 141.02999999999997 1720.78C137.58999999999997 1720.78 134.77999999999997 1723.58 134.77999999999997 1727.03ZM134 1727.03C134 1723.1499999999999 137.16 1720 141.03 1720C142.03 1720 143 1720.2 143.9 1720.61C145.53 1721.33 146.81 1722.6399999999999 147.51000000000002 1724.27C147.88000000000002 1725.15 148.07000000000002 1726.07 148.07000000000002 1727.03C148.07000000000002 1730.8999999999999 144.91000000000003 1734.06 141.03000000000003 1734.06C137.16000000000003 1734.06 134.00000000000003 1730.8999999999999 134.00000000000003 1727.03Z " fill-opacity="0" fill="#ffffff" stroke-dashoffset="0" stroke-linejoin="miter" stroke-linecap="butt" stroke-opacity="1" stroke="#527282" stroke-miterlimit="50" stroke-width="0.7" transform="matrix(1,0,0,1,-120.64999999999999,-1698.65)"></path><path id="SvgjsPath1102" d="M137.42 1721.88C137.22 1721.88 137.05999999999997 1721.73 137.03 1721.5300000000002L136 1712.4300000000003C135.98 1712.2200000000003 136.13 1712.0300000000002 136.35 1712.0000000000002C136.56 1711.9800000000002 136.75 1712.1300000000003 136.78 1712.3500000000001L137.81 1721.44C137.83 1721.66 137.68 1721.8500000000001 137.46 1721.88C137.45000000000002 1721.88 137.44 1721.88 137.42000000000002 1721.88 " fill="#527282" fill-opacity="1" transform="matrix(1,0,0,1,-120.64999999999999,-1698.65)"></path><path id="SvgjsPath1103" d="M137.42 1721.88C137.22 1721.88 137.05999999999997 1721.73 137.03 1721.5300000000002L136 1712.4300000000003C135.98 1712.2200000000003 136.13 1712.0300000000002 136.35 1712.0000000000002C136.56 1711.9800000000002 136.75 1712.1300000000003 136.78 1712.3500000000001L137.81 1721.44C137.83 1721.66 137.68 1721.8500000000001 137.46 1721.88C137.45000000000002 1721.88 137.44 1721.88 137.42000000000002 1721.88 " fill-opacity="0" fill="#ffffff" stroke-dashoffset="0" stroke-linejoin="miter" stroke-linecap="butt" stroke-opacity="1" stroke="#527282" stroke-miterlimit="50" stroke-width="0.7" transform="matrix(1,0,0,1,-120.64999999999999,-1698.65)"></path><path id="SvgjsPath1104" d="M130.17 1712.76C129.30999999999997 1712.76 128.48999999999998 1712.39 127.90999999999998 1711.75L125.09999999999998 1708.65C124.95999999999998 1708.49 124.96999999999998 1708.24 125.12999999999998 1708.1000000000001C125.28999999999998 1707.96 125.52999999999999 1707.97 125.67999999999998 1708.13L128.48999999999998 1711.23C128.92 1711.71 129.52999999999997 1711.98 130.17 1711.98C130.17999999999998 1711.98 130.17999999999998 1711.98 130.19 1711.98L134.25 1711.95V1711.95C134.46 1711.95 134.64 1712.1200000000001 134.64 1712.3400000000001C134.64 1712.5500000000002 134.47 1712.7300000000002 134.25 1712.7300000000002L130.19 1712.7600000000002C130.18 1712.7600000000002 130.18 1712.7600000000002 130.17 1712.7600000000002 " fill="#527282" fill-opacity="1" transform="matrix(1,0,0,1,-120.64999999999999,-1698.65)"></path><path id="SvgjsPath1105" d="M130.17 1712.76C129.30999999999997 1712.76 128.48999999999998 1712.39 127.90999999999998 1711.75L125.09999999999998 1708.65C124.95999999999998 1708.49 124.96999999999998 1708.24 125.12999999999998 1708.1000000000001C125.28999999999998 1707.96 125.52999999999999 1707.97 125.67999999999998 1708.13L128.48999999999998 1711.23C128.92 1711.71 129.52999999999997 1711.98 130.17 1711.98C130.17999999999998 1711.98 130.17999999999998 1711.98 130.19 1711.98L134.25 1711.95V1711.95C134.46 1711.95 134.64 1712.1200000000001 134.64 1712.3400000000001C134.64 1712.5500000000002 134.47 1712.7300000000002 134.25 1712.7300000000002L130.19 1712.7600000000002C130.18 1712.7600000000002 130.18 1712.7600000000002 130.17 1712.7600000000002 " fill-opacity="0" fill="#ffffff" stroke-dashoffset="0" stroke-linejoin="miter" stroke-linecap="butt" stroke-opacity="1" stroke="#527282" stroke-miterlimit="50" stroke-width="0.7" transform="matrix(1,0,0,1,-120.64999999999999,-1698.65)"></path><path id="SvgjsPath1106" d="M139.3 1720.97C139.10000000000002 1720.97 138.93 1720.83 138.91000000000003 1720.63L138.00000000000003 1713.64C138.00000000000003 1713.63 138.00000000000003 1713.6200000000001 138.00000000000003 1713.6100000000001C137.96000000000004 1712.7700000000002 138.75000000000003 1712.0800000000002 139.80000000000004 1712.0200000000002L140.09000000000003 1712.0000000000002C141.14000000000004 1711.9500000000003 142.00000000000003 1712.5500000000002 142.05000000000004 1713.3700000000001L142.98000000000005 1720.48C143.00000000000006 1720.69 142.85000000000005 1720.89 142.64000000000004 1720.91C142.43000000000004 1720.94 142.23000000000005 1720.7900000000002 142.20000000000005 1720.5800000000002L141.28000000000006 1713.4600000000003C141.28000000000006 1713.4500000000003 141.28000000000006 1713.4400000000003 141.27000000000007 1713.4300000000003C141.25000000000006 1713.0500000000002 140.73000000000008 1712.7500000000002 140.14000000000007 1712.7800000000002L139.84000000000006 1712.8000000000002C139.25000000000006 1712.8300000000002 138.77000000000007 1713.17 138.78000000000006 1713.5500000000002L139.68000000000006 1720.5300000000002C139.71000000000006 1720.7500000000002 139.56000000000006 1720.9400000000003 139.35000000000005 1720.9700000000003C139.33000000000004 1720.9700000000003 139.31000000000006 1720.9700000000003 139.30000000000004 1720.9700000000003 " fill="#527282" fill-opacity="1" transform="matrix(1,0,0,1,-120.64999999999999,-1698.65)"></path><path id="SvgjsPath1107" d="M139.3 1720.97C139.10000000000002 1720.97 138.93 1720.83 138.91000000000003 1720.63L138.00000000000003 1713.64C138.00000000000003 1713.63 138.00000000000003 1713.6200000000001 138.00000000000003 1713.6100000000001C137.96000000000004 1712.7700000000002 138.75000000000003 1712.0800000000002 139.80000000000004 1712.0200000000002L140.09000000000003 1712.0000000000002C141.14000000000004 1711.9500000000003 142.00000000000003 1712.5500000000002 142.05000000000004 1713.3700000000001L142.98000000000005 1720.48C143.00000000000006 1720.69 142.85000000000005 1720.89 142.64000000000004 1720.91C142.43000000000004 1720.94 142.23000000000005 1720.7900000000002 142.20000000000005 1720.5800000000002L141.28000000000006 1713.4600000000003C141.28000000000006 1713.4500000000003 141.28000000000006 1713.4400000000003 141.27000000000007 1713.4300000000003C141.25000000000006 1713.0500000000002 140.73000000000008 1712.7500000000002 140.14000000000007 1712.7800000000002L139.84000000000006 1712.8000000000002C139.25000000000006 1712.8300000000002 138.77000000000007 1713.17 138.78000000000006 1713.5500000000002L139.68000000000006 1720.5300000000002C139.71000000000006 1720.7500000000002 139.56000000000006 1720.9400000000003 139.35000000000005 1720.9700000000003C139.33000000000004 1720.9700000000003 139.31000000000006 1720.9700000000003 139.30000000000004 1720.9700000000003 " fill-opacity="0" fill="#ffffff" stroke-dashoffset="0" stroke-linejoin="miter" stroke-linecap="butt" stroke-opacity="1" stroke="#527282" stroke-miterlimit="50" stroke-width="0.7" transform="matrix(1,0,0,1,-120.64999999999999,-1698.65)"></path><path id="SvgjsPath1108" d="M152.78 1730.18H152.49C151.23000000000002 1730.18 150.69 1728.5900000000001 150.67000000000002 1728.53L149.39000000000001 1724.71C149.29000000000002 1724.43 149.02 1724.23 148.72000000000003 1724.23H146.96000000000004C146.75000000000003 1724.23 146.57000000000005 1724.06 146.57000000000005 1723.84C146.57000000000005 1723.6299999999999 146.75000000000006 1723.4599999999998 146.96000000000004 1723.4599999999998H148.72000000000003C149.36 1723.4599999999998 149.92000000000002 1723.86 150.13000000000002 1724.4699999999998L151.40000000000003 1728.2799999999997C151.41000000000003 1728.2899999999997 151.81000000000003 1729.3999999999996 152.49000000000004 1729.3999999999996H152.78000000000003C153.10000000000002 1729.3999999999996 153.40000000000003 1729.2399999999996 153.58000000000004 1728.9799999999996C153.77000000000004 1728.7199999999996 153.81000000000003 1728.3899999999996 153.71000000000004 1728.0899999999995L151.57000000000005 1722.0199999999995C151.30000000000004 1721.2799999999995 150.60000000000005 1720.7799999999995 149.81000000000006 1720.7799999999995V1720.7799999999995L142.39000000000007 1720.7899999999995V1720.7899999999995C142.17000000000007 1720.7899999999995 142.00000000000009 1720.6099999999994 142.00000000000009 1720.3999999999994C142.00000000000009 1720.1799999999994 142.17000000000007 1720.0099999999993 142.39000000000007 1720.0099999999993L149.81000000000006 1719.9999999999993V1719.9999999999993C150.93000000000006 1719.9999999999993 151.93000000000006 1720.7099999999994 152.30000000000007 1721.7599999999993L154.44000000000005 1727.8299999999992C154.63000000000005 1728.3699999999992 154.55000000000007 1728.9699999999993 154.22000000000006 1729.4299999999992C153.89000000000004 1729.8999999999992 153.35000000000005 1730.1799999999992 152.78000000000006 1730.1799999999992 " fill="#527282" fill-opacity="1" transform="matrix(1,0,0,1,-120.64999999999999,-1698.65)"></path><path id="SvgjsPath1109" d="M152.78 1730.18H152.49C151.23000000000002 1730.18 150.69 1728.5900000000001 150.67000000000002 1728.53L149.39000000000001 1724.71C149.29000000000002 1724.43 149.02 1724.23 148.72000000000003 1724.23H146.96000000000004C146.75000000000003 1724.23 146.57000000000005 1724.06 146.57000000000005 1723.84C146.57000000000005 1723.6299999999999 146.75000000000006 1723.4599999999998 146.96000000000004 1723.4599999999998H148.72000000000003C149.36 1723.4599999999998 149.92000000000002 1723.86 150.13000000000002 1724.4699999999998L151.40000000000003 1728.2799999999997C151.41000000000003 1728.2899999999997 151.81000000000003 1729.3999999999996 152.49000000000004 1729.3999999999996H152.78000000000003C153.10000000000002 1729.3999999999996 153.40000000000003 1729.2399999999996 153.58000000000004 1728.9799999999996C153.77000000000004 1728.7199999999996 153.81000000000003 1728.3899999999996 153.71000000000004 1728.0899999999995L151.57000000000005 1722.0199999999995C151.30000000000004 1721.2799999999995 150.60000000000005 1720.7799999999995 149.81000000000006 1720.7799999999995V1720.7799999999995L142.39000000000007 1720.7899999999995V1720.7899999999995C142.17000000000007 1720.7899999999995 142.00000000000009 1720.6099999999994 142.00000000000009 1720.3999999999994C142.00000000000009 1720.1799999999994 142.17000000000007 1720.0099999999993 142.39000000000007 1720.0099999999993L149.81000000000006 1719.9999999999993V1719.9999999999993C150.93000000000006 1719.9999999999993 151.93000000000006 1720.7099999999994 152.30000000000007 1721.7599999999993L154.44000000000005 1727.8299999999992C154.63000000000005 1728.3699999999992 154.55000000000007 1728.9699999999993 154.22000000000006 1729.4299999999992C153.89000000000004 1729.8999999999992 153.35000000000005 1730.1799999999992 152.78000000000006 1730.1799999999992 " fill-opacity="0" fill="#ffffff" stroke-dashoffset="0" stroke-linejoin="miter" stroke-linecap="butt" stroke-opacity="1" stroke="#527282" stroke-miterlimit="50" stroke-width="0.7" transform="matrix(1,0,0,1,-120.64999999999999,-1698.65)"></path><path id="SvgjsPath1110" d="M129.45 1732.1C129.45999999999998 1732.27 129.58999999999997 1733.35 130.67999999999998 1733.35C131.15999999999997 1733.35 131.48999999999998 1733.1799999999998 131.68999999999997 1732.83C131.83999999999997 1732.57 131.85999999999996 1732.28 131.85999999999996 1732.25L131.87999999999997 1725.23C131.87999999999997 1724.6100000000001 131.76999999999995 1724 131.52999999999997 1723.43L129.05999999999997 1717.3600000000001H125.26999999999997L124.64999999999996 1724.0600000000002C124.59999999999997 1724.5900000000001 124.46999999999996 1725.1100000000001 124.26999999999997 1725.6000000000001L121.85999999999997 1731.4800000000002C121.80999999999997 1731.6400000000003 121.50999999999998 1732.6900000000003 122.52999999999997 1733.1000000000001C122.97999999999998 1733.2800000000002 123.33999999999997 1733.2500000000002 123.65999999999997 1733.0000000000002C123.90999999999997 1732.7900000000002 124.02999999999997 1732.5200000000002 124.03999999999996 1732.5200000000002L126.71999999999997 1726.5300000000002C126.88999999999997 1726.15 126.98999999999997 1725.7600000000002 127.00999999999998 1725.3500000000001L127.23999999999998 1721.39C127.24999999999999 1721.2 127.38999999999999 1721.0500000000002 127.56999999999998 1721.0200000000002C127.74999999999999 1721.0000000000002 127.92999999999998 1721.1000000000001 127.98999999999998 1721.2700000000002L129.11999999999998 1724.2500000000002C129.35999999999999 1724.8800000000003 129.48 1725.5500000000002 129.48 1726.2200000000003ZM128.67 1732.14C128.67 1732.13 128.67 1732.1200000000001 128.67 1732.1100000000001L128.7 1726.22C128.7 1725.64 128.6 1725.07 128.39 1724.53L127.90999999999998 1723.26L127.78999999999998 1725.39C127.75999999999998 1725.9 127.63999999999997 1726.39 127.42999999999998 1726.8500000000001L124.74999999999997 1732.8300000000002C124.54999999999997 1733.3000000000002 123.97999999999998 1733.9900000000002 123.05999999999997 1733.9900000000002C122.80999999999997 1733.9900000000002 122.53999999999998 1733.9400000000003 122.23999999999998 1733.8200000000002C120.83999999999997 1733.2600000000002 120.89999999999998 1731.8700000000001 121.11999999999998 1731.2200000000003C121.11999999999998 1731.2100000000003 121.12999999999998 1731.2100000000003 121.12999999999998 1731.2000000000003L123.54999999999998 1725.3000000000002C123.71999999999998 1724.88 123.82999999999998 1724.4400000000003 123.87999999999998 1723.9800000000002L125.27999999999999 1708.7300000000002C125.32999999999998 1708.2300000000002 125.57999999999998 1707.7600000000002 125.96999999999998 1707.4400000000003C126.35999999999999 1707.1200000000003 126.86999999999999 1706.9600000000003 127.36999999999999 1707.0100000000002L128.57 1707.13C129.6 1707.22 130.37 1708.14 130.29 1709.17L130.22 1710.16C130.2 1710.38 130.01 1710.5400000000002 129.8 1710.52C129.58 1710.51 129.42000000000002 1710.32 129.44 1710.1L129.52 1709.11C129.56 1708.5 129.11 1707.9599999999998 128.5 1707.8999999999999L127.29 1707.78C127 1707.76 126.69000000000001 1707.85 126.46000000000001 1708.04C126.23 1708.23 126.09 1708.51 126.06 1708.8L125.34 1716.58H129.32C129.48 1716.58 129.62 1716.6799999999998 129.68 1716.83L132.25 1723.1299999999999C132.53 1723.8 132.67 1724.51 132.66 1725.2299999999998L132.64 1732.2599999999998V1732.2699999999998C132.63 1732.9099999999999 132.2 1734.1299999999997 130.67999999999998 1734.1299999999997C129.17999999999998 1734.1299999999997 128.70999999999998 1732.8299999999997 128.67 1732.1399999999996Z " fill="#527282" fill-opacity="1" transform="matrix(1,0,0,1,-120.64999999999999,-1698.65)"></path><path id="SvgjsPath1111" d="M129.45 1732.1C129.45999999999998 1732.27 129.58999999999997 1733.35 130.67999999999998 1733.35C131.15999999999997 1733.35 131.48999999999998 1733.1799999999998 131.68999999999997 1732.83C131.83999999999997 1732.57 131.85999999999996 1732.28 131.85999999999996 1732.25L131.87999999999997 1725.23C131.87999999999997 1724.6100000000001 131.76999999999995 1724 131.52999999999997 1723.43L129.05999999999997 1717.3600000000001H125.26999999999997L124.64999999999996 1724.0600000000002C124.59999999999997 1724.5900000000001 124.46999999999996 1725.1100000000001 124.26999999999997 1725.6000000000001L121.85999999999997 1731.4800000000002C121.80999999999997 1731.6400000000003 121.50999999999998 1732.6900000000003 122.52999999999997 1733.1000000000001C122.97999999999998 1733.2800000000002 123.33999999999997 1733.2500000000002 123.65999999999997 1733.0000000000002C123.90999999999997 1732.7900000000002 124.02999999999997 1732.5200000000002 124.03999999999996 1732.5200000000002L126.71999999999997 1726.5300000000002C126.88999999999997 1726.15 126.98999999999997 1725.7600000000002 127.00999999999998 1725.3500000000001L127.23999999999998 1721.39C127.24999999999999 1721.2 127.38999999999999 1721.0500000000002 127.56999999999998 1721.0200000000002C127.74999999999999 1721.0000000000002 127.92999999999998 1721.1000000000001 127.98999999999998 1721.2700000000002L129.11999999999998 1724.2500000000002C129.35999999999999 1724.8800000000003 129.48 1725.5500000000002 129.48 1726.2200000000003ZM128.67 1732.14C128.67 1732.13 128.67 1732.1200000000001 128.67 1732.1100000000001L128.7 1726.22C128.7 1725.64 128.6 1725.07 128.39 1724.53L127.90999999999998 1723.26L127.78999999999998 1725.39C127.75999999999998 1725.9 127.63999999999997 1726.39 127.42999999999998 1726.8500000000001L124.74999999999997 1732.8300000000002C124.54999999999997 1733.3000000000002 123.97999999999998 1733.9900000000002 123.05999999999997 1733.9900000000002C122.80999999999997 1733.9900000000002 122.53999999999998 1733.9400000000003 122.23999999999998 1733.8200000000002C120.83999999999997 1733.2600000000002 120.89999999999998 1731.8700000000001 121.11999999999998 1731.2200000000003C121.11999999999998 1731.2100000000003 121.12999999999998 1731.2100000000003 121.12999999999998 1731.2000000000003L123.54999999999998 1725.3000000000002C123.71999999999998 1724.88 123.82999999999998 1724.4400000000003 123.87999999999998 1723.9800000000002L125.27999999999999 1708.7300000000002C125.32999999999998 1708.2300000000002 125.57999999999998 1707.7600000000002 125.96999999999998 1707.4400000000003C126.35999999999999 1707.1200000000003 126.86999999999999 1706.9600000000003 127.36999999999999 1707.0100000000002L128.57 1707.13C129.6 1707.22 130.37 1708.14 130.29 1709.17L130.22 1710.16C130.2 1710.38 130.01 1710.5400000000002 129.8 1710.52C129.58 1710.51 129.42000000000002 1710.32 129.44 1710.1L129.52 1709.11C129.56 1708.5 129.11 1707.9599999999998 128.5 1707.8999999999999L127.29 1707.78C127 1707.76 126.69000000000001 1707.85 126.46000000000001 1708.04C126.23 1708.23 126.09 1708.51 126.06 1708.8L125.34 1716.58H129.32C129.48 1716.58 129.62 1716.6799999999998 129.68 1716.83L132.25 1723.1299999999999C132.53 1723.8 132.67 1724.51 132.66 1725.2299999999998L132.64 1732.2599999999998V1732.2699999999998C132.63 1732.9099999999999 132.2 1734.1299999999997 130.67999999999998 1734.1299999999997C129.17999999999998 1734.1299999999997 128.70999999999998 1732.8299999999997 128.67 1732.1399999999996Z " fill-opacity="0" fill="#ffffff" stroke-dashoffset="0" stroke-linejoin="miter" stroke-linecap="butt" stroke-opacity="1" stroke="#527282" stroke-miterlimit="50" stroke-width="0.7" transform="matrix(1,0,0,1,-120.64999999999999,-1698.65)"></path><path id="SvgjsPath1112" d="M129.39 1717.39C129.38 1717.39 129.36999999999998 1717.39 129.36999999999998 1717.39C129.14999999999998 1717.38 128.98999999999998 1717.19 128.99999999999997 1716.98L129.15999999999997 1714.3700000000001C129.17999999999998 1714.15 129.35999999999996 1713.99 129.57999999999996 1714.0000000000002C129.78999999999996 1714.0100000000002 129.95999999999995 1714.2000000000003 129.93999999999997 1714.4100000000003L129.77999999999997 1717.0300000000002C129.76999999999998 1717.2300000000002 129.58999999999997 1717.39 129.39 1717.39 " fill="#527282" fill-opacity="1" transform="matrix(1,0,0,1,-120.64999999999999,-1698.65)"></path><path id="SvgjsPath1113" d="M129.39 1717.39C129.38 1717.39 129.36999999999998 1717.39 129.36999999999998 1717.39C129.14999999999998 1717.38 128.98999999999998 1717.19 128.99999999999997 1716.98L129.15999999999997 1714.3700000000001C129.17999999999998 1714.15 129.35999999999996 1713.99 129.57999999999996 1714.0000000000002C129.78999999999996 1714.0100000000002 129.95999999999995 1714.2000000000003 129.93999999999997 1714.4100000000003L129.77999999999997 1717.0300000000002C129.76999999999998 1717.2300000000002 129.58999999999997 1717.39 129.39 1717.39 " fill-opacity="0" fill="#ffffff" stroke-dashoffset="0" stroke-linejoin="miter" stroke-linecap="butt" stroke-opacity="1" stroke="#527282" stroke-miterlimit="50" stroke-width="0.7" transform="matrix(1,0,0,1,-120.64999999999999,-1698.65)"></path></svg>