<svg id="SvgjsSvg1028" xmlns="http://www.w3.org/2000/svg" version="1.1" xmlns:xlink="http://www.w3.org/1999/xlink" xmlns:svgjs="http://svgjs.com/svgjs" width="25" height="29" viewBox="0 0 25 29"><title>Shape</title><desc>Created with Avocode.</desc><defs id="SvgjsDefs1029"></defs><path id="SvgjsPath1030" d="M148.91 960H125.61C125.27 960 125 960.27 125 960.6V988.34C125 988.6700000000001 125.27 988.94 125.61 988.94H148.91C149.24 988.94 149.52 988.6700000000001 149.52 988.34V960.6C149.52 960.27 149.24 960 148.91 960ZM148.29 987.73H126.22999999999999V961.21H148.29Z " fill="#527282" fill-opacity="1" transform="matrix(1,0,0,1,-125,-960)"></path><path id="SvgjsPath1031" d="M147.61 983.71C147.95000000000002 983.71 148.23000000000002 983.44 148.23000000000002 983.1V979.49C148.23000000000002 979.15 147.95000000000002 978.88 147.61 978.88V968.63C147.95000000000002 968.63 148.23000000000002 968.36 148.23000000000002 968.03V964.41C148.23000000000002 964.0799999999999 147.95000000000002 963.81 147.61 963.81V962H128V986.12H147.61ZM129.23 984.91V963.2099999999999H146.39V984.91Z " fill="#527282" fill-opacity="1" transform="matrix(1,0,0,1,-125,-960)"></path><path id="SvgjsPath1032" d="M131.61 979.06H143.9C144.24 979.06 144.51000000000002 978.79 144.51000000000002 978.4599999999999C144.51000000000002 978.3399999999999 144.48000000000002 978.2299999999999 144.42000000000002 978.1399999999999L138.29000000000002 967.3099999999998C138.18 967.1199999999998 137.98000000000002 966.9999999999999 137.76000000000002 966.9999999999999C137.53000000000003 966.9999999999999 137.33 967.1199999999999 137.22000000000003 967.3099999999998L131.08000000000004 978.1599999999999C130.97000000000003 978.3499999999999 130.97000000000003 978.5799999999998 131.08000000000004 978.7599999999999C131.19000000000005 978.9499999999999 131.40000000000003 979.0599999999998 131.61000000000004 979.0599999999998ZM137.76 968.84L142.85999999999999 977.85H132.66Z " fill="#527282" fill-opacity="1" transform="matrix(1,0,0,1,-125,-960)"></path><path id="SvgjsPath1033" d="M139.59 973.7C139.47 973.5200000000001 139.28 973.4100000000001 139.07 973.4100000000001H137.60999999999999L138.39 971.8700000000001C138.54 971.5700000000002 138.42 971.2100000000002 138.10999999999999 971.0600000000002C137.80999999999997 970.9100000000002 137.44 971.0400000000002 137.29 971.3300000000002L136.06 973.7500000000001C135.97 973.9300000000001 135.98 974.1500000000001 136.09 974.3300000000002C136.20000000000002 974.5100000000001 136.4 974.6200000000001 136.61 974.6200000000001H138.07000000000002L137.29000000000002 976.1600000000001C137.14000000000001 976.45 137.26000000000002 976.82 137.56000000000003 976.97C137.65000000000003 977.01 137.75000000000003 977.03 137.84000000000003 977.03C138.06000000000003 977.03 138.28000000000003 976.91 138.39000000000004 976.6999999999999L139.61000000000004 974.28C139.71000000000004 974.1 139.70000000000005 973.88 139.59000000000003 973.6999999999999Z " fill="#527282" fill-opacity="1" transform="matrix(1,0,0,1,-125,-960)"></path><path id="SvgjsPath1034" d="M142.19 980H133.60999999999999C133.26999999999998 980 132.99999999999997 980.27 132.99999999999997 980.6C132.99999999999997 980.94 133.26999999999998 981.21 133.60999999999999 981.21H142.19C142.53 981.21 142.81 980.94 142.81 980.6C142.81 980.27 142.53 980 142.19 980Z " fill="#527282" fill-opacity="1" transform="matrix(1,0,0,1,-125,-960)"></path></svg>