<svg id="SvgjsSvg1050" xmlns="http://www.w3.org/2000/svg" version="1.1" xmlns:xlink="http://www.w3.org/1999/xlink" xmlns:svgjs="http://svgjs.com/svgjs" width="28" height="28" viewBox="0 0 28 28"><title>Page 1</title><desc>Created with Avocode.</desc><defs id="SvgjsDefs1051"></defs><path id="SvgjsPath1052" d="M134.88 1200.51H137.84V1206.32H134.88ZM149.85 1209.85H132.42V1207.6699999999998H142.98999999999998C143.35 1207.6699999999998 143.64 1207.3799999999999 143.64 1207.0199999999998V1199.1199999999997C143.64 1198.7599999999998 143.35 1198.4799999999996 142.98999999999998 1198.4799999999996C142.62999999999997 1198.4799999999996 142.35 1198.7599999999995 142.35 1199.1199999999997V1206.3799999999997H139.14V1199.8599999999997C139.14 1199.5099999999998 138.85 1199.2199999999996 138.48999999999998 1199.2199999999996H134.23C133.88 1199.2199999999996 133.59 1199.5099999999995 133.59 1199.8599999999997V1206.3799999999997H132.42000000000002V1194.4399999999996L136.36 1190.4999999999995L145.54000000000002 1199.6799999999996C145.79000000000002 1199.9299999999996 146.20000000000002 1199.9299999999996 146.45000000000002 1199.6799999999996C146.71 1199.4299999999996 146.71 1199.0199999999995 146.45000000000002 1198.7599999999995L136.82000000000002 1189.1299999999994C136.57000000000002 1188.8799999999994 136.16000000000003 1188.8799999999994 135.91000000000003 1189.1299999999994L132.42000000000002 1192.6199999999994V1186.1499999999994H144.04000000000002V1191.3099999999995C144.04000000000002 1191.6699999999994 144.33 1191.9599999999996 144.69000000000003 1191.9599999999996H149.85000000000002ZM126.16 1186.16H130.27V1209.8500000000001H126.16000000000001ZM145.33 1187.25L148.75 1190.66H145.33ZM145.45 1184.32C145.25 1184.12 144.98 1184 144.69 1184H125.08C124.49 1184 124 1184.48 124 1185.08V1210.9199999999998C124 1211.5199999999998 124.49 1211.9999999999998 125.08 1211.9999999999998H150.92C151.51999999999998 1211.9999999999998 152 1211.5199999999998 152 1210.9199999999998V1191.31C152 1191.04 151.9 1190.76 151.68 1190.55Z " fill="#527282" fill-opacity="1" transform="matrix(1,0,0,1,-124,-1184)"></path></svg>