<svg id="SvgjsSvg1019" xmlns="http://www.w3.org/2000/svg" version="1.1" xmlns:xlink="http://www.w3.org/1999/xlink" xmlns:svgjs="http://svgjs.com/svgjs" width="25" height="30" viewBox="0 0 25 30"><title>Fill 1</title><desc>Created with Avocode.</desc><defs id="SvgjsDefs1020"></defs><path id="SvgjsPath1021" d="M146.4 795.77C142.22 798.49 132.11 798.48 127.93 795.77ZM127.17 798C132.16 800.87 142.16 800.86 147.15 798C147.25 798.07 147.35 798.17 147.44 798.31C147.65 798.63 147.78 799.0799999999999 147.78 799.5999999999999C147.78 800.0999999999999 147.65 800.56 147.44 800.8799999999999C147.29 801.1099999999999 147.1 801.2599999999999 146.92 801.2599999999999C146.86999999999998 801.2599999999999 146.82999999999998 801.2499999999999 146.79 801.2299999999999C146.75 801.2199999999999 146.72 801.1999999999999 146.67999999999998 801.18C146.60999999999999 801.12 146.52999999999997 801.0799999999999 146.43999999999997 801.06C146.06999999999996 800.9499999999999 145.67999999999998 801.17 145.56999999999996 801.55C145.35999999999996 802.31 145.06999999999996 803.04 144.71999999999997 803.7299999999999C143.90999999999997 805.3299999999999 142.64999999999998 806.8899999999999 141.24999999999997 807.9899999999999C139.90999999999997 809.0499999999998 138.52999999999997 809.5799999999999 137.15999999999997 809.5799999999999C135.78999999999996 809.5799999999999 134.39999999999998 809.05 133.05999999999997 807.9899999999999C131.67 806.8899999999999 130.39999999999998 805.3299999999999 129.59999999999997 803.7299999999999C129.24999999999997 803.0399999999998 128.95999999999998 802.31 128.74999999999997 801.55C128.63999999999996 801.17 128.24999999999997 800.9499999999999 127.87999999999997 801.06C127.78999999999996 801.0799999999999 127.70999999999997 801.1199999999999 127.63999999999997 801.18C127.60999999999997 801.1999999999999 127.55999999999997 801.2199999999999 127.52999999999997 801.2299999999999C127.48999999999997 801.2499999999999 127.44999999999997 801.2599999999999 127.40999999999997 801.2599999999999C127.21999999999997 801.2599999999999 127.03999999999996 801.1099999999999 126.87999999999997 800.8799999999999C126.66999999999997 800.5599999999998 126.53999999999996 800.0999999999999 126.53999999999996 799.5999999999999C126.53999999999996 799.0799999999999 126.66999999999996 798.6299999999999 126.87999999999997 798.31C126.96999999999997 798.17 127.06999999999996 798.0699999999999 127.16999999999997 798ZM138.33 783.43C139.43 783.56 140.48000000000002 783.88 141.44000000000003 784.3499999999999V789.7099999999999C141.44000000000003 790.0999999999999 141.75000000000003 790.42 142.14000000000001 790.42C142.53 790.42 142.84 790.0999999999999 142.84 789.7099999999999V785.1899999999999C145.39000000000001 787.03 146.98 790.0699999999999 146.98 793.26V794.35H127.33999999999999V793.26C127.33999999999999 790.0699999999999 128.91 787.03 131.48 785.1899999999999V789.7099999999999C131.48 790.0999999999999 131.79 790.42 132.17999999999998 790.42C132.56999999999996 790.42 132.87999999999997 790.0999999999999 132.87999999999997 789.7099999999999V784.3499999999999C133.83999999999997 783.8799999999999 134.88999999999996 783.56 135.98999999999998 783.43V791.5C135.98999999999998 792.15 136.51 792.67 137.15999999999997 792.67C137.79999999999995 792.67 138.32999999999996 792.15 138.32999999999996 791.5ZM137.16 811C138.84 811 140.52 810.36 142.12 809.1C143.69 807.86 145.05 806.1700000000001 145.97 804.37C146.25 803.82 146.49 803.25 146.69 802.66C146.77 802.67 146.84 802.67 146.92 802.67C147.58999999999997 802.67 148.19 802.28 148.6 801.66H148.60999999999999C148.95999999999998 801.12 149.17999999999998 800.39 149.17999999999998 799.6C149.17999999999998 798.8000000000001 148.95999999999998 798.07 148.60999999999999 797.53C148.51999999999998 797.39 148.42 797.27 148.30999999999997 797.16C148.95999999999998 796.53 149.31999999999996 795.8299999999999 149.31999999999996 795.06V793.26C149.31999999999996 786.53 143.82999999999996 781 137.15999999999997 781C130.48999999999998 781 124.99999999999997 786.53 124.99999999999997 793.26V795.06C124.99999999999997 795.8299999999999 125.35999999999997 796.54 126.00999999999998 797.16C125.89999999999998 797.27 125.79999999999998 797.39 125.70999999999998 797.53H125.71999999999998C125.35999999999999 798.0699999999999 125.13999999999999 798.8 125.13999999999999 799.6C125.13999999999999 800.39 125.35999999999999 801.12 125.70999999999998 801.66H125.71999999999998C126.12999999999998 802.28 126.71999999999998 802.67 127.40999999999998 802.67C127.47999999999998 802.67 127.54999999999998 802.67 127.62999999999998 802.66C127.82999999999998 803.25 128.07 803.8199999999999 128.35 804.37C129.26 806.17 130.63 807.86 132.21 809.1C133.8 810.36 135.47 811 137.16 811Z " fill="#527282" fill-opacity="1" transform="matrix(1,0,0,1,-125,-781)"></path></svg>