<svg id="SvgjsSvg1038" xmlns="http://www.w3.org/2000/svg" version="1.1" xmlns:xlink="http://www.w3.org/1999/xlink" xmlns:svgjs="http://svgjs.com/svgjs" width="29.000000000000014" height="29" viewBox="0 0 29.000000000000014 29"><title>Shape</title><desc>Created with Avocode.</desc><defs id="SvgjsDefs1039"></defs><path id="SvgjsPath1040" d="M152 1102.83H149.29V1101H142.06V1102.83H133.94V1101H126.71V1102.83H124V1127.11H125.36V1128.9399999999998H128.97V1127.11H147.03V1128.9399999999998H150.64000000000001V1127.11H152.00000000000003ZM142.97 1101.92H148.38V1102.8300000000002H142.97ZM127.61 1101.92H133.03V1102.8300000000002H127.61ZM151.1 1103.75V1108.33H124.89999999999999V1103.75ZM126.26 1128.02V1127.1H128.07V1128.02ZM149.74 1128.02H147.93V1127.1H149.74ZM150.64 1126.18H124.89999999999999V1109.24H151.1V1126.19H150.64Z " fill="#527282" fill-opacity="1" transform="matrix(1,0,0,1,-123.49999999999999,-1100.5)"></path><path id="SvgjsPath1041" d="M152 1102.83H149.29V1101H142.06V1102.83H133.94V1101H126.71V1102.83H124V1127.11H125.36V1128.9399999999998H128.97V1127.11H147.03V1128.9399999999998H150.64000000000001V1127.11H152.00000000000003ZM142.97 1101.92H148.38V1102.8300000000002H142.97ZM127.61 1101.92H133.03V1102.8300000000002H127.61ZM151.1 1103.75V1108.33H124.89999999999999V1103.75ZM126.26 1128.02V1127.1H128.07V1128.02ZM149.74 1128.02H147.93V1127.1H149.74ZM150.64 1126.18H124.89999999999999V1109.24H151.1V1126.19H150.64Z " fill-opacity="0" fill="#ffffff" stroke-dashoffset="0" stroke-linejoin="miter" stroke-linecap="butt" stroke-opacity="1" stroke="#527282" stroke-miterlimit="50" stroke-width="1" transform="matrix(1,0,0,1,-123.49999999999999,-1100.5)"></path><path id="SvgjsPath1042" d="M138.36 1107.75C139.11 1107.75 139.71 1107.13 139.71 1106.37C139.71 1105.61 139.11 1105 138.36 1105C137.61 1105 137 1105.61 137 1106.37C137 1107.1299999999999 137.61 1107.75 138.36 1107.75ZM138.36 1105.92C138.60000000000002 1105.92 138.81 1106.1200000000001 138.81 1106.3700000000001C138.81 1106.63 138.6 1106.8300000000002 138.36 1106.8300000000002C138.11 1106.8300000000002 137.9 1106.63 137.9 1106.3700000000001C137.9 1106.1200000000001 138.11 1105.92 138.36 1105.92Z " fill="#527282" fill-opacity="1" transform="matrix(1,0,0,1,-123.49999999999999,-1100.5)"></path><path id="SvgjsPath1043" d="M143.36 1107.75C144.11 1107.75 144.71 1107.13 144.71 1106.37C144.71 1105.61 144.11 1105 143.36 1105C142.61 1105 142 1105.61 142 1106.37C142 1107.1299999999999 142.61 1107.75 143.36 1107.75ZM143.36 1105.92C143.60000000000002 1105.92 143.81 1106.1200000000001 143.81 1106.3700000000001C143.81 1106.63 143.6 1106.8300000000002 143.36 1106.8300000000002C143.11 1106.8300000000002 142.9 1106.63 142.9 1106.3700000000001C142.9 1106.1200000000001 143.11 1105.92 143.36 1105.92Z " fill="#527282" fill-opacity="1" transform="matrix(1,0,0,1,-123.49999999999999,-1100.5)"></path><path id="SvgjsPath1044" d="M133.36 1107.75C134.11 1107.75 134.71 1107.13 134.71 1106.37C134.71 1105.61 134.11 1105 133.36 1105C132.61 1105 132 1105.61 132 1106.37C132 1107.1299999999999 132.61 1107.75 133.36 1107.75ZM133.36 1105.92C133.60000000000002 1105.92 133.81 1106.1200000000001 133.81 1106.3700000000001C133.81 1106.63 133.6 1106.8300000000002 133.36 1106.8300000000002C133.11 1106.8300000000002 132.9 1106.63 132.9 1106.3700000000001C132.9 1106.1200000000001 133.11 1105.92 133.36 1105.92Z " fill="#527282" fill-opacity="1" transform="matrix(1,0,0,1,-123.49999999999999,-1100.5)"></path><path id="SvgjsPath1045" d="M129 1123.45H147.02V1112H129ZM129.9 1112.92H146.12V1122.53H129.9Z " fill="#527282" fill-opacity="1" transform="matrix(1,0,0,1,-123.49999999999999,-1100.5)"></path><path id="SvgjsPath1046" d="M132 1116.83H132.9V1115.9199999999998H143.74V1116.83H144.64000000000001V1115H132Z " fill="#527282" fill-opacity="1" transform="matrix(1,0,0,1,-123.49999999999999,-1100.5)"></path><path id="SvgjsPath1047" d="M138 1119V1118H139V1119Z " fill="#527282" fill-opacity="1" transform="matrix(1,0,0,1,-123.49999999999999,-1100.5)"></path><path id="SvgjsPath1048" d="M139 1119V1118H140V1119Z " fill="#527282" fill-opacity="1" transform="matrix(1,0,0,1,-123.49999999999999,-1100.5)"></path><path id="SvgjsPath1049" d="M136 1119V1118H137V1119Z " fill="#527282" fill-opacity="1" transform="matrix(1,0,0,1,-123.49999999999999,-1100.5)"></path></svg>