<svg id="SvgjsSvg1131" xmlns="http://www.w3.org/2000/svg" version="1.1" xmlns:xlink="http://www.w3.org/1999/xlink" xmlns:svgjs="http://svgjs.com/svgjs" width="28" height="27" viewBox="0 0 28 27"><title>Fill 1</title><desc>Created with Avocode.</desc><defs id="SvgjsDefs1132"></defs><path id="SvgjsPath1133" d="M728.9 863.42C728.47 863.42 728.0699999999999 863.5999999999999 727.78 863.89C727.5 864.18 727.31 864.5699999999999 727.31 865.01V865.02C727.31 865.4499999999999 727.5 865.85 727.78 866.14C728.0699999999999 866.42 728.47 866.6 728.9 866.6H750.67C751.11 866.6 751.51 866.4200000000001 751.79 866.14H751.8C752.0799999999999 865.85 752.26 865.4499999999999 752.26 865.02V865.01C752.26 864.5699999999999 752.08 864.18 751.79 863.89C751.51 863.6 751.11 863.42 750.67 863.42ZM736.95 845.04H742.63L741.7 842.3199999999999H737.88ZM743.37 847.23H736.2L735.63 848.9200000000001L734.8 851.35H744.77L743.9399999999999 848.9200000000001ZM747.65 859.84H731.92L731.15 862.11H748.42ZM732.66 857.65H746.91L745.51 853.53H734.06ZM729.77 862.11L734.39 848.5L736.79 841.45C736.87 841.1800000000001 737.13 841 737.41 841H742.17C742.4799999999999 841 742.7299999999999 841.21 742.81 841.49L745.18 848.5L749.81 862.11H750.67C751.4699999999999 862.11 752.1999999999999 862.44 752.7199999999999 862.96C753.2399999999999 863.49 753.5699999999999 864.21 753.5699999999999 865.01V865.02C753.5699999999999 865.81 753.2399999999999 866.53 752.7199999999999 867.06C752.1999999999999 867.5799999999999 751.4699999999999 867.91 750.67 867.91H728.9C728.1 867.91 727.38 867.5899999999999 726.85 867.06C726.33 866.54 726 865.81 726 865.02V865.01C726 864.21 726.33 863.49 726.85 862.96C727.38 862.44 728.1 862.11 728.9 862.11Z " fill="#527282" fill-opacity="1" transform="matrix(1,0,0,1,-726,-841)"></path></svg>