<svg id="SvgjsSvg1134" xmlns="http://www.w3.org/2000/svg" version="1.1" xmlns:xlink="http://www.w3.org/1999/xlink" xmlns:svgjs="http://svgjs.com/svgjs" width="27" height="27" viewBox="0 0 27 27"><title>Fill 1</title><desc>Created with Avocode.</desc><defs id="SvgjsDefs1135"></defs><path id="SvgjsPath1136" d="M734.11 920.08C734.45 920.08 734.73 919.8000000000001 734.73 919.46C734.73 919.12 734.45 918.84 734.11 918.84H730.66C730.31 918.84 730.03 919.12 730.03 919.46C730.03 919.8000000000001 730.31 920.08 730.66 920.08ZM743.5 905.25C743.85 905.25 744.12 904.98 744.12 904.63C744.12 904.29 743.85 904.01 743.5 904.01H740.05C739.7099999999999 904.01 739.43 904.29 739.43 904.63C739.43 904.98 739.7099999999999 905.25 740.05 905.25ZM743.5 910.2C743.85 910.2 744.12 909.9100000000001 744.12 909.58C744.12 909.23 743.85 908.96 743.5 908.96H740.05C739.7099999999999 908.96 739.43 909.23 739.43 909.58C739.43 909.9100000000001 739.7099999999999 910.2 740.05 910.2ZM743.5 915.14C743.85 915.14 744.12 914.86 744.12 914.51C744.12 914.18 743.85 913.9 743.5 913.9H740.05C739.7099999999999 913.9 739.43 914.18 739.43 914.51C739.43 914.86 739.7099999999999 915.14 740.05 915.14ZM743.5 920.08C743.85 920.08 744.12 919.8000000000001 744.12 919.46C744.12 919.12 743.85 918.84 743.5 918.84H740.05C739.7099999999999 918.84 739.43 919.12 739.43 919.46C739.43 919.8000000000001 739.7099999999999 920.08 740.05 920.08ZM738.44 901.07H751.57V923.7800000000001H738.44ZM729.08 911.17H736.36V923.78H729.08ZM737.4 899C736.8199999999999 899 736.36 899.46 736.36 900.03V909.11H728.04C727.4699999999999 909.11 727 909.57 727 910.14V924.81C727 925.39 727.47 925.8499999999999 728.04 925.8499999999999H752.61C753.19 925.8499999999999 753.65 925.3899999999999 753.65 924.81V900.03C753.65 899.4599999999999 753.1899999999999 899 752.61 899ZM749.95 905.25C750.3000000000001 905.25 750.58 904.98 750.58 904.63C750.58 904.29 750.3000000000001 904.01 749.95 904.01H746.51C746.17 904.01 745.89 904.29 745.89 904.63C745.89 904.98 746.17 905.25 746.51 905.25ZM734.11 915.14C734.45 915.14 734.73 914.86 734.73 914.51C734.73 914.18 734.45 913.9 734.11 913.9H730.66C730.31 913.9 730.03 914.18 730.03 914.51C730.03 914.86 730.31 915.14 730.66 915.14ZM749.95 920.08C750.3000000000001 920.08 750.58 919.8000000000001 750.58 919.46C750.58 919.12 750.3000000000001 918.84 749.95 918.84H746.51C746.17 918.84 745.89 919.12 745.89 919.46C745.89 919.8000000000001 746.17 920.08 746.51 920.08ZM749.95 910.2C750.3000000000001 910.2 750.58 909.9100000000001 750.58 909.58C750.58 909.23 750.3000000000001 908.96 749.95 908.96H746.51C746.17 908.96 745.89 909.23 745.89 909.58C745.89 909.9100000000001 746.17 910.2 746.51 910.2ZM746.51 915.14C746.17 915.14 745.89 914.86 745.89 914.51C745.89 914.18 746.17 913.9 746.51 913.9H749.95C750.3000000000001 913.9 750.58 914.18 750.58 914.51C750.58 914.86 750.3000000000001 915.14 749.95 915.14Z " fill="#527282" fill-opacity="1" transform="matrix(1,0,0,1,-727,-899)"></path></svg>