<svg id="SvgjsSvg1035" xmlns="http://www.w3.org/2000/svg" version="1.1" xmlns:xlink="http://www.w3.org/1999/xlink" xmlns:svgjs="http://svgjs.com/svgjs" width="29" height="28" viewBox="0 0 29 28"><title>Fill 1</title><desc>Created with Avocode.</desc><defs id="SvgjsDefs1036"></defs><path id="SvgjsPath1037" d="M144.2 1040.33C144.28 1040.33 144.35 1040.36 144.39999999999998 1040.4099999999999V1040.4199999999998C144.45 1040.4699999999998 144.48 1040.5399999999997 144.48 1040.62C144.48 1040.6999999999998 144.45 1040.77 144.39999999999998 1040.82C144.34999999999997 1040.87 144.26999999999998 1040.9099999999999 144.2 1040.9099999999999H130.66C130.57999999999998 1040.9099999999999 130.51 1040.87 130.46 1040.82C130.41 1040.77 130.38 1040.7 130.38 1040.62C130.38 1040.54 130.41 1040.4699999999998 130.46 1040.4199999999998L130.48000000000002 1040.3999999999999C130.53000000000003 1040.36 130.59000000000003 1040.33 130.66000000000003 1040.33ZM125.22 1051.74H125.99V1064.75H125.22ZM148.86 1051.74H149.64000000000001V1064.75H148.86ZM127.32 1053.34H147.54V1063.1499999999999H127.32ZM142.17 1048.13V1052.0200000000002H132.69V1048.13ZM135.65 1045.38H139.21V1046.8000000000002H135.65ZM130.66 1039C130.24 1039 129.85 1039.17 129.56 1039.44L129.52 1039.48C129.23000000000002 1039.76 129.04000000000002 1040.17 129.04000000000002 1040.6200000000001C129.04000000000002 1041.0600000000002 129.23000000000002 1041.47 129.52 1041.7600000000002C129.81 1042.0500000000002 130.22 1042.2400000000002 130.66 1042.2400000000002H136.32V1043.1600000000003H134.54C133.92 1043.1600000000003 133.42999999999998 1043.6600000000003 133.42999999999998 1044.2700000000002V1045.9100000000003H131.57999999999998C130.95999999999998 1045.9100000000003 130.46999999999997 1046.4100000000003 130.46999999999997 1047.0200000000002V1051.1200000000001H128.21999999999997V1050.63C128.21999999999997 1050.0200000000002 127.70999999999997 1049.5200000000002 127.09999999999997 1049.5200000000002H124.10999999999997C123.48999999999997 1049.5200000000002 122.99999999999997 1050.0200000000002 122.99999999999997 1050.63V1065.8600000000001C122.99999999999997 1066.48 123.48999999999997 1066.97 124.10999999999997 1066.97H127.09999999999997C127.70999999999997 1066.97 128.21999999999997 1066.48 128.21999999999997 1065.8600000000001V1065.3700000000001H146.64V1065.8600000000001C146.64 1066.48 147.14 1066.97 147.76 1066.97H150.75C151.36 1066.97 151.86 1066.48 151.86 1065.8600000000001V1050.63C151.86 1050.0200000000002 151.36 1049.5200000000002 150.75 1049.5200000000002H147.76C147.14 1049.5200000000002 146.64 1050.0200000000002 146.64 1050.63V1051.1200000000001H144.39V1047.0200000000002C144.39 1046.4100000000003 143.89999999999998 1045.9100000000003 143.27999999999997 1045.9100000000003H141.42999999999998V1044.2700000000002C141.42999999999998 1043.6600000000003 140.92999999999998 1043.1600000000003 140.31999999999996 1043.1600000000003H138.53999999999996V1042.2400000000002H144.19999999999996C144.63999999999996 1042.2400000000002 145.04999999999995 1042.0500000000002 145.33999999999995 1041.7600000000002C145.62999999999994 1041.4700000000003 145.80999999999995 1041.0600000000002 145.80999999999995 1040.6200000000001C145.80999999999995 1040.17 145.62999999999994 1039.7600000000002 145.33999999999995 1039.48C145.04999999999995 1039.18 144.63999999999996 1039 144.19999999999996 1039Z " fill="#527282" fill-opacity="1" transform="matrix(1,0,0,1,-123,-1039)"></path></svg>