<svg id="SvgjsSvg1137" xmlns="http://www.w3.org/2000/svg" version="1.1" xmlns:xlink="http://www.w3.org/1999/xlink" xmlns:svgjs="http://svgjs.com/svgjs" width="29.322761569791965" height="27.3310055924851" viewBox="0 0 29.322761569791965 27.3310055924851"><title>Fill 1</title><desc>Created with Avocode.</desc><defs id="SvgjsDefs1138"></defs><path id="SvgjsPath1139" d="M744.59 962.3C744.44 961.74 744.77 961.18 745.33 961.04C745.87 960.89 746.44 961.2199999999999 746.59 961.77L753.22 986.64C753.36 987.1899999999999 753.03 987.76 752.48 987.9C751.9300000000001 988.04 751.36 987.72 751.22 987.16ZM739 962.04C739 961.6899999999999 739.28 961.41 739.63 961.41C739.97 961.41 740.25 961.6899999999999 740.25 962.04V963.76C740.25 964.1 739.97 964.38 739.63 964.38C739.28 964.38 739 964.1 739 963.76ZM739 983.46C739 983.11 739.28 982.84 739.63 982.84C739.97 982.84 740.25 983.11 740.25 983.46V986.9000000000001C740.25 987.2400000000001 739.97 987.5200000000001 739.63 987.5200000000001C739.28 987.5200000000001 739 987.2400000000001 739 986.9000000000001ZM739.01 978.1C739.01 977.76 739.28 977.48 739.63 977.48C739.97 977.48 740.25 977.76 740.25 978.1V981.12C740.25 981.46 739.97 981.74 739.63 981.74C739.28 981.74 739.01 981.46 739.01 981.12ZM739.01 972.74C739.01 972.4 739.28 972.12 739.63 972.12C739.97 972.12 740.25 972.4 740.25 972.74V975.33C740.25 975.6700000000001 739.97 975.95 739.63 975.95C739.28 975.95 739.01 975.6700000000001 739.01 975.33ZM739.01 967.39C739.01 967.04 739.28 966.77 739.63 966.77C739.97 966.77 740.25 967.04 740.25 967.39V969.54C740.25 969.88 739.97 970.17 739.63 970.17C739.28 970.17 739.01 969.88 739.01 969.54ZM734.67 962.3C734.81 961.74 734.4799999999999 961.18 733.93 961.04C733.37 960.89 732.81 961.2199999999999 732.67 961.77L726.03 986.64C725.89 987.1899999999999 726.22 987.76 726.77 987.9C727.3199999999999 988.04 727.89 987.72 728.03 987.16Z " fill="#527282" fill-opacity="1" transform="matrix(1,0,0,1,-724.838619215104,-960.8344972037575)"></path><path id="SvgjsPath1140" d="M744.59 962.3C744.44 961.74 744.77 961.18 745.33 961.04C745.87 960.89 746.44 961.2199999999999 746.59 961.77L753.22 986.64C753.36 987.1899999999999 753.03 987.76 752.48 987.9C751.9300000000001 988.04 751.36 987.72 751.22 987.16ZM739 962.04C739 961.6899999999999 739.28 961.41 739.63 961.41C739.97 961.41 740.25 961.6899999999999 740.25 962.04V963.76C740.25 964.1 739.97 964.38 739.63 964.38C739.28 964.38 739 964.1 739 963.76ZM739 983.46C739 983.11 739.28 982.84 739.63 982.84C739.97 982.84 740.25 983.11 740.25 983.46V986.9000000000001C740.25 987.2400000000001 739.97 987.5200000000001 739.63 987.5200000000001C739.28 987.5200000000001 739 987.2400000000001 739 986.9000000000001ZM739.01 978.1C739.01 977.76 739.28 977.48 739.63 977.48C739.97 977.48 740.25 977.76 740.25 978.1V981.12C740.25 981.46 739.97 981.74 739.63 981.74C739.28 981.74 739.01 981.46 739.01 981.12ZM739.01 972.74C739.01 972.4 739.28 972.12 739.63 972.12C739.97 972.12 740.25 972.4 740.25 972.74V975.33C740.25 975.6700000000001 739.97 975.95 739.63 975.95C739.28 975.95 739.01 975.6700000000001 739.01 975.33ZM739.01 967.39C739.01 967.04 739.28 966.77 739.63 966.77C739.97 966.77 740.25 967.04 740.25 967.39V969.54C740.25 969.88 739.97 970.17 739.63 970.17C739.28 970.17 739.01 969.88 739.01 969.54ZM734.67 962.3C734.81 961.74 734.4799999999999 961.18 733.93 961.04C733.37 960.89 732.81 961.2199999999999 732.67 961.77L726.03 986.64C725.89 987.1899999999999 726.22 987.76 726.77 987.9C727.3199999999999 988.04 727.89 987.72 728.03 987.16Z " fill-opacity="0" fill="#ffffff" stroke-dashoffset="0" stroke-linejoin="miter" stroke-linecap="butt" stroke-opacity="1" stroke="#527282" stroke-miterlimit="50" stroke-width="0.4" transform="matrix(1,0,0,1,-724.838619215104,-960.8344972037575)"></path></svg>