<svg id="SvgjsSvg1312" xmlns="http://www.w3.org/2000/svg" version="1.1" xmlns:xlink="http://www.w3.org/1999/xlink" xmlns:svgjs="http://svgjs.com/svgjs" width="30" height="28" viewBox="0 0 30 28"><title>Shape</title><desc>Created with Avocode.</desc><defs id="SvgjsDefs1313"></defs><path id="SvgjsPath1314" d="M665.98 638.16H665.6700000000001V631.7199999999999C665.6700000000001 630.2199999999999 664.4300000000001 628.9999999999999 662.9000000000001 628.9999999999999H643.1000000000001C641.5700000000002 628.9999999999999 640.3300000000002 630.2199999999999 640.3300000000002 631.7199999999999V638.16H640.0200000000002C638.9100000000002 638.16 638.0000000000002 639.05 638.0000000000002 640.14V641.4499999999999C638.0000000000002 642.54 638.9100000000002 643.43 640.0200000000002 643.43H640.3300000000002V650.15C640.3300000000002 651.65 641.5700000000002 652.87 643.1000000000001 652.87H643.5800000000002V655.18C643.5800000000002 656.0999999999999 644.4400000000002 656.8399999999999 645.5100000000001 656.8399999999999H646.7600000000001C647.8300000000002 656.8399999999999 648.69 656.0999999999999 648.69 655.18V652.87H657.3100000000001V655.18C657.3100000000001 656.0999999999999 658.1800000000001 656.8399999999999 659.24 656.8399999999999H660.49C661.5600000000001 656.8399999999999 662.42 656.0999999999999 662.42 655.18V652.87H662.9C664.43 652.87 665.67 651.65 665.67 650.15V643.43H665.9799999999999C667.0899999999999 643.43 667.9999999999999 642.54 667.9999999999999 641.4499999999999V640.14C667.9999999999999 639.05 667.0899999999999 638.16 665.9799999999999 638.16ZM661.51 639.86C661.26 639.58 660.83 639.5500000000001 660.54 639.79L655.88 643.7199999999999H646.67L650.12 640.8199999999999C650.41 640.5699999999999 650.44 640.15 650.19 639.8599999999999C649.95 639.5799999999999 649.5100000000001 639.55 649.22 639.7899999999998L644.5600000000001 643.7199999999998H641.7V635.0899999999998H664.3000000000001V643.7199999999998H657.9900000000001L661.4400000000002 640.8199999999998C661.7200000000001 640.5699999999998 661.7600000000002 640.1499999999999 661.5100000000002 639.8599999999998ZM643.1 630.35H662.9C663.67 630.35 664.3 630.96 664.3 631.72V633.74H641.6999999999999V631.72C641.6999999999999 630.96 642.3299999999999 630.35 643.0999999999999 630.35ZM639.37 641.45V640.1400000000001C639.37 639.7900000000001 639.66 639.5100000000001 640.02 639.5100000000001H640.3299999999999V642.0800000000002H640.02C639.66 642.0800000000002 639.37 641.8000000000002 639.37 641.4500000000002ZM647.32 655.18C647.32 655.31 647.1 655.4899999999999 646.7600000000001 655.4899999999999H645.5100000000001C645.1700000000001 655.4899999999999 644.9500000000002 655.31 644.9500000000002 655.18V652.87H647.3200000000002ZM661.05 655.18C661.05 655.31 660.8299999999999 655.4899999999999 660.49 655.4899999999999H659.24C658.9 655.4899999999999 658.6800000000001 655.31 658.6800000000001 655.18V652.87H661.0500000000001ZM662.9 651.52H643.1C642.33 651.52 641.7 650.91 641.7 650.15V645.0699999999999H664.3000000000001V650.15C664.3000000000001 650.91 663.6700000000001 651.52 662.9000000000001 651.52ZM666.63 641.45C666.63 641.8000000000001 666.34 642.08 665.98 642.08H665.6700000000001V639.51H665.98C666.34 639.51 666.63 639.79 666.63 640.14Z " fill="#6c2914" fill-opacity="1" transform="matrix(1,0,0,1,-638,-629)"></path></svg>