<svg id="SvgjsSvg1323" xmlns="http://www.w3.org/2000/svg" version="1.1" xmlns:xlink="http://www.w3.org/1999/xlink" xmlns:svgjs="http://svgjs.com/svgjs" width="16" height="4" viewBox="0 0 16 4"><title>Oval</title><desc>Created with Avocode.</desc><defs id="SvgjsDefs1324"></defs><path id="SvgjsPath1325" d="M1332 289C1332 287.89543 1332.89543 287 1334 287C1335.10457 287 1336 287.89543 1336 289C1336 290.10457 1335.10457 291 1334 291C1332.89543 291 1332 290.10457 1332 289Z " fill="#f67123" fill-opacity="1" transform="matrix(1,0,0,1,-1332,-287)"></path><path id="SvgjsPath1326" d="M1338 289C1338 287.89543 1338.89543 287 1340 287C1341.10457 287 1342 287.89543 1342 289C1342 290.10457 1341.10457 291 1340 291C1338.89543 291 1338 290.10457 1338 289Z " fill="#f67123" fill-opacity="1" transform="matrix(1,0,0,1,-1332,-287)"></path><path id="SvgjsPath1327" d="M1344 289C1344 287.89543 1344.89543 287 1346 287C1347.10457 287 1348 287.89543 1348 289C1348 290.10457 1347.10457 291 1346 291C1344.89543 291 1344 290.10457 1344 289Z " fill="#f67123" fill-opacity="1" transform="matrix(1,0,0,1,-1332,-287)"></path></svg>