<svg id="SvgjsSvg1181" xmlns="http://www.w3.org/2000/svg" version="1.1" xmlns:xlink="http://www.w3.org/1999/xlink" xmlns:svgjs="http://svgjs.com/svgjs" width="16" height="4" viewBox="0 0 16 4"><title>Oval</title><desc>Created with Avocode.</desc><defs id="SvgjsDefs1182"></defs><path id="SvgjsPath1183" d="M1332 261C1332 259.89543 1332.89543 259 1334 259C1335.10457 259 1336 259.89543 1336 261C1336 262.10457 1335.10457 263 1334 263C1332.89543 263 1332 262.10457 1332 261Z " fill="#4a4a4a" fill-opacity="1" transform="matrix(1,0,0,1,-1332,-259)"></path><path id="SvgjsPath1184" d="M1338 261C1338 259.89543 1338.89543 259 1340 259C1341.10457 259 1342 259.89543 1342 261C1342 262.10457 1341.10457 263 1340 263C1338.89543 263 1338 262.10457 1338 261Z " fill="#4a4a4a" fill-opacity="1" transform="matrix(1,0,0,1,-1332,-259)"></path><path id="SvgjsPath1185" d="M1344 261C1344 259.89543 1344.89543 259 1346 259C1347.10457 259 1348 259.89543 1348 261C1348 262.10457 1347.10457 263 1346 263C1344.89543 263 1344 262.10457 1344 261Z " fill="#4a4a4a" fill-opacity="1" transform="matrix(1,0,0,1,-1332,-259)"></path></svg>