<svg id="SvgjsSvg1195" xmlns="http://www.w3.org/2000/svg" version="1.1" xmlns:xlink="http://www.w3.org/1999/xlink" xmlns:svgjs="http://svgjs.com/svgjs" width="22" height="22" viewBox="0 0 22 22"><title>Shape</title><desc>Created with Avocode.</desc><defs id="SvgjsDefs1196"></defs><path id="SvgjsPath1197" d="M322.83 914.06V917.6899999999999H329.26C328.95 919.1999999999999 327.38 922.2199999999999 322.99 922.2199999999999C319.22 922.2199999999999 316.24 919.1999999999999 316.24 915.5699999999999C316.24 911.9499999999999 319.38 908.93 322.99 908.93C325.18 908.93 326.59000000000003 909.8299999999999 327.38 910.5899999999999L330.36 907.8699999999999C328.48 906.06 325.97 904.9999999999999 322.99 904.9999999999999C316.86 904.9999999999999 312 909.6799999999998 312 915.5699999999999C312 921.4599999999999 316.86 926.15 322.99 926.15C329.26 926.15 333.5 921.92 333.5 915.88C333.5 915.12 333.5 914.67 333.34 914.06H322.83Z " fill="#e00000" fill-opacity="1" transform="matrix(1,0,0,1,-312,-905)"></path></svg>