<svg id="SvgjsSvg1309" xmlns="http://www.w3.org/2000/svg" version="1.1" xmlns:xlink="http://www.w3.org/1999/xlink" xmlns:svgjs="http://svgjs.com/svgjs" width="32" height="22" viewBox="0 0 32 22"><title>Fill 4</title><desc>Created with Avocode.</desc><defs id="SvgjsDefs1310"></defs><path id="SvgjsPath1311" d="M603.54 352.05C605.62 355.69 607.63 359.23 609.76 362.95C611.88 359.22999999999996 613.89 355.71 616 352C617.19 355.01 618.32 357.86 619.44 360.7C620.58 363.59999999999997 621.75 366.47999999999996 622.83 369.4C623.21 370.41999999999996 623.6600000000001 371.04999999999995 624.82 370.81C625 370.77 625.21 370.85 625.48 370.88V373.44H614.52V370.9C614.96 370.84 615.43 370.78 616.09 370.7C615.5600000000001 369.17 615.0500000000001 367.7 614.45 366C612.83 368.66 611.34 371.11 609.76 373.71C608.1899999999999 371.14 606.71 368.71 605.08 366.02C604.49 367.65999999999997 603.98 369.09 603.4200000000001 370.66999999999996C603.98 370.74999999999994 604.48 370.81999999999994 605.0300000000001 370.9V373.44H594.0000000000001V371.01C594.0700000000002 370.95 594.1400000000001 370.86 594.1900000000002 370.86C595.8900000000002 371.17 596.4200000000002 370.12 596.9400000000002 368.73C598.9300000000002 363.48 601.0300000000002 358.28000000000003 603.0900000000001 353.06C603.2000000000002 352.76 603.3500000000001 352.48 603.5400000000002 352.05 " fill="#619be7" fill-opacity="1" transform="matrix(1,0,0,1,-594,-352)"></path></svg>