<svg id="SvgjsSvg1204" xmlns="http://www.w3.org/2000/svg" version="1.1" xmlns:xlink="http://www.w3.org/1999/xlink" xmlns:svgjs="http://svgjs.com/svgjs" width="12" height="18" viewBox="0 0 12 18"><title>Fill 1</title><desc>Created with Avocode.</desc><defs id="SvgjsDefs1205"><clipPath id="SvgjsClipPath1210"><path id="SvgjsPath1209" d="M580 911C580 908.79086 581.79086 907 584 907C586.20914 907 588 908.79086 588 911C588 913.20914 586.20914 915 584 915C581.79086 915 580 913.20914 580 911Z " fill="#ffffff"></path></clipPath></defs><path id="SvgjsPath1206" d="M581.9 919.02C580.85 918.52 579.89 918.0699999999999 578.93 917.6C578.13 917.2 577.7399999999999 916.58 578.1999999999999 915.71C578.6099999999999 914.9100000000001 579.29 914.83 580.05 915.25C582.5999999999999 916.67 585.16 916.68 587.7099999999999 915.26C588.53 914.8 589.2299999999999 914.9399999999999 589.6399999999999 915.8C590.0299999999999 916.63 589.5899999999999 917.2199999999999 588.8599999999999 917.5899999999999C587.9099999999999 918.0699999999999 586.9399999999999 918.5099999999999 585.8899999999999 919.0199999999999C586.7799999999999 920.1899999999998 587.6299999999999 921.3199999999998 588.4899999999999 922.4399999999998C589.0099999999999 923.1299999999999 589.4799999999999 923.8899999999999 588.6499999999999 924.6099999999998C587.7999999999998 925.3499999999998 587.1299999999999 924.8499999999998 586.4799999999999 924.1199999999998C585.6099999999999 923.1399999999998 584.9399999999999 921.3499999999998 583.8399999999999 921.3799999999998C582.9599999999999 921.4099999999997 582.1299999999999 923.0999999999998 581.2699999999999 924.0599999999997C581.2399999999999 924.0899999999997 581.2099999999999 924.1199999999997 581.1899999999998 924.1599999999997C580.6299999999999 924.8899999999998 579.9399999999998 925.2999999999997 579.1199999999998 924.6599999999997C578.2499999999998 923.9899999999998 578.5999999999998 923.2299999999998 579.1599999999997 922.5199999999998C580.0699999999997 921.3799999999998 580.9599999999997 920.2199999999998 581.8999999999997 919.0199999999998 " fill="#f67123" fill-opacity="1" transform="matrix(1,0,0,1,-578,-907)"></path><path id="SvgjsPath1207" d="M580 911C580 908.79086 581.79086 907 584 907C586.20914 907 588 908.79086 588 911C588 913.20914 586.20914 915 584 915C581.79086 915 580 913.20914 580 911Z " fill="#f67123" fill-opacity="1" transform="matrix(1,0,0,1,-578,-907)"></path><path id="SvgjsPath1208" d="M580 911C580 908.79086 581.79086 907 584 907C586.20914 907 588 908.79086 588 911C588 913.20914 586.20914 915 584 915C581.79086 915 580 913.20914 580 911Z " fill-opacity="0" fill="#ffffff" stroke-dashoffset="0" stroke-linejoin="miter" stroke-linecap="butt" stroke-opacity="1" stroke="#f67123" stroke-miterlimit="50" stroke-width="4" clip-path="url(&quot;#SvgjsClipPath1210&quot;)" transform="matrix(1,0,0,1,-578,-907)"></path></svg>