<svg id="SvgjsSvg1303" xmlns="http://www.w3.org/2000/svg" version="1.1" xmlns:xlink="http://www.w3.org/1999/xlink" xmlns:svgjs="http://svgjs.com/svgjs" width="68" height="82" viewBox="0 0 68 82"><title>Shape</title><desc>Created with Avocode.</desc><defs id="SvgjsDefs1304"></defs><path id="SvgjsPath1305" d="M230.71 408H225V420.61H227.4V416.54H230.22L230.77 416.53000000000003C232.5 416.53000000000003 233.64000000000001 416.25000000000006 234.21 415.70000000000005C234.78 415.14000000000004 235.06 414.02000000000004 235.06 412.33000000000004C235.06 410.63000000000005 234.76 409.49000000000007 234.17000000000002 408.89000000000004C233.57000000000002 408.29 232.42000000000002 408.00000000000006 230.71 408.00000000000006ZM232.19 414.15C231.9 414.4 231.21 414.52 230.12 414.52H227.4V410.01H230.37C231.39000000000001 410.01 232.02 410.14 232.27 410.39C232.51000000000002 410.65 232.63000000000002 411.31 232.63000000000002 412.37C232.63000000000002 413.31 232.48000000000002 413.9 232.19000000000003 414.15Z " fill="#6c2914" fill-opacity="1" transform="matrix(1,0,0,1,-209,-358)"></path><path id="SvgjsPath1306" d="M242.21 408H236V420.61H242.28C244.27 420.61 245.55 420.16 246.12 419.27000000000004C246.69 418.38000000000005 246.97 416.35 246.97 413.20000000000005C246.97 411.27000000000004 246.62 409.93000000000006 245.91 409.16C245.21 408.38000000000005 243.97 408 242.21 408ZM244.03 417.81C243.7 418.33 242.96 418.6 241.81 418.6H238.4V410.01000000000005H241.96C243.07000000000002 410.01000000000005 243.78 410.27000000000004 244.08 410.77000000000004C244.39000000000001 411.27000000000004 244.54000000000002 412.46000000000004 244.54000000000002 414.32000000000005C244.54000000000002 416.12000000000006 244.37000000000003 417.28000000000003 244.03000000000003 417.81000000000006Z " fill="#6c2914" fill-opacity="1" transform="matrix(1,0,0,1,-209,-358)"></path><path id="SvgjsPath1307" d="M214.96 431.68V440H276.94V375.14L259.79 358H214.96000000000004V402.36H209.00000000000003V425.73ZM261.07 364.19L270.75 373.86H261.07ZM217.53 360.56H258.5V376.42H274.38V437.44H217.53V425.73H270.8V402.36H217.53ZM211.56 404.93H268.23V423.17H211.56Z " fill="#6c2914" fill-opacity="1" transform="matrix(1,0,0,1,-209,-358)"></path><path id="SvgjsPath1308" d="M249 420.61H251.4V415.43H257.06V413.41H251.4V410.01000000000005H257.36V408.00000000000006H249Z " fill="#6c2914" fill-opacity="1" transform="matrix(1,0,0,1,-209,-358)"></path></svg>