<svg id="SvgjsSvg1189" xmlns="http://www.w3.org/2000/svg" version="1.1" xmlns:xlink="http://www.w3.org/1999/xlink" xmlns:svgjs="http://svgjs.com/svgjs" width="123" height="81" viewBox="0 0 123 81"><title>Shape</title><desc>Created with Avocode.</desc><defs id="SvgjsDefs1190"></defs><path id="SvgjsPath1191" d="M203.33 1293.52C207.12 1291.19 211.57000000000002 1289.85 216.32000000000002 1289.85C230.10000000000002 1289.85 241.32000000000002 1301.1 241.32000000000002 1314.9199999999998C241.32000000000002 1328.7499999999998 230.10000000000002 1339.9899999999998 216.32000000000002 1339.9899999999998C202.54000000000002 1339.9899999999998 191.34000000000003 1328.7499999999998 191.34000000000003 1314.9199999999998C191.34000000000003 1314.4299999999998 191.36000000000004 1313.9499999999998 191.38000000000002 1313.4599999999998C191.36 1313.3099999999997 191.34000000000003 1313.1599999999999 191.34000000000003 1312.9999999999998C191.34000000000003 1283.2199999999998 215.48000000000002 1258.9999999999998 245.15000000000003 1258.9999999999998C247.29000000000002 1258.9999999999998 249.00000000000003 1260.7099999999998 249.00000000000003 1262.8399999999997C249.00000000000003 1264.9899999999998 247.29000000000002 1266.6999999999996 245.15000000000003 1266.6999999999996C226.65000000000003 1266.6999999999996 210.68000000000004 1277.6999999999996 203.33000000000004 1293.5199999999995ZM179.81 1266.7C181.93 1266.7 183.66 1264.99 183.66 1262.8400000000001C183.66 1260.71 181.93 1259.0000000000002 179.81 1259.0000000000002C150.14 1259.0000000000002 126 1283.2200000000003 126 1313.0000000000002C126 1313.1600000000003 126.03 1313.3100000000002 126.05 1313.4600000000003C126.02 1313.9500000000003 126 1314.4300000000003 126 1314.9200000000003C126 1328.7500000000002 137.21 1339.9900000000002 150.98 1339.9900000000002C164.76 1339.9900000000002 175.97 1328.7500000000002 175.97 1314.9200000000003C175.97 1301.1000000000004 164.76 1289.8500000000004 150.98 1289.8500000000004C146.22 1289.8500000000004 141.76 1291.2000000000003 137.97 1293.5300000000004C145.32 1277.7100000000005 161.31 1266.7000000000005 179.81 1266.7000000000005Z " fill="#e4e4e4" fill-opacity="1" transform="matrix(1,0,0,1,-126,-1259)"></path></svg>