<svg id="SvgjsSvg1315" xmlns="http://www.w3.org/2000/svg" version="1.1" xmlns:xlink="http://www.w3.org/1999/xlink" xmlns:svgjs="http://svgjs.com/svgjs" width="30" height="34.64999999999998" viewBox="0 0 30 34.64999999999998"><title>Shape</title><desc>Created with Avocode.</desc><defs id="SvgjsDefs1316"></defs><path id="SvgjsPath1317" d="M645.68 697C644.76 697 644 697.74 644 698.66C644 699.5699999999999 644.76 700.31 645.68 700.31C646.6099999999999 700.31 647.37 699.5699999999999 647.37 698.66C647.37 697.74 646.61 697 645.68 697ZM645.68 698.96C645.51 698.96 645.37 698.82 645.37 698.6600000000001C645.37 698.4900000000001 645.51 698.3500000000001 645.68 698.3500000000001C645.8599999999999 698.3500000000001 646 698.4900000000001 646 698.6600000000001C646 698.82 645.86 698.96 645.68 698.96Z " fill="#527282" fill-opacity="1" transform="matrix(1,0,0,1,-638,-672.35)"></path><path id="SvgjsPath1318" d="M659.69 697C658.7600000000001 697 658 697.74 658 698.66C658 699.5699999999999 658.76 700.31 659.69 700.31C660.61 700.31 661.37 699.5699999999999 661.37 698.66C661.37 697.74 660.61 697 659.69 697ZM659.69 698.96C659.5100000000001 698.96 659.37 698.82 659.37 698.6600000000001C659.37 698.4900000000001 659.51 698.3500000000001 659.69 698.3500000000001C659.86 698.3500000000001 660 698.4900000000001 660 698.6600000000001C660 698.82 659.86 698.96 659.69 698.96Z " fill="#527282" fill-opacity="1" transform="matrix(1,0,0,1,-638,-672.35)"></path><path id="SvgjsPath1319" d="M665.98 688.16H665.6700000000001V681.7199999999999C665.6700000000001 680.2199999999999 664.4300000000001 678.9999999999999 662.9000000000001 678.9999999999999H643.1000000000001C641.5700000000002 678.9999999999999 640.3300000000002 680.2199999999999 640.3300000000002 681.7199999999999V688.16H640.0200000000002C638.9100000000002 688.16 638.0000000000002 689.05 638.0000000000002 690.14V691.4499999999999C638.0000000000002 692.54 638.9100000000002 693.43 640.0200000000002 693.43H640.3300000000002V700.15C640.3300000000002 701.65 641.5700000000002 702.87 643.1000000000001 702.87H643.5800000000002V705.18C643.5800000000002 706.0999999999999 644.4400000000002 706.8399999999999 645.5100000000001 706.8399999999999H646.7600000000001C647.8300000000002 706.8399999999999 648.69 706.0999999999999 648.69 705.18V702.87H657.3100000000001V705.18C657.3100000000001 706.0999999999999 658.1800000000001 706.8399999999999 659.24 706.8399999999999H660.49C661.5600000000001 706.8399999999999 662.42 706.0999999999999 662.42 705.18V702.87H662.9C664.43 702.87 665.67 701.65 665.67 700.15V693.43H665.9799999999999C667.0899999999999 693.43 667.9999999999999 692.54 667.9999999999999 691.4499999999999V690.14C667.9999999999999 689.05 667.0899999999999 688.16 665.9799999999999 688.16ZM661.51 689.86C661.26 689.58 660.83 689.5500000000001 660.54 689.79L655.88 693.7199999999999H646.67L650.12 690.8199999999999C650.41 690.5699999999999 650.44 690.15 650.19 689.8599999999999C649.95 689.5799999999999 649.5100000000001 689.55 649.22 689.7899999999998L644.5600000000001 693.7199999999998H641.7V685.0899999999998H664.3000000000001V693.7199999999998H657.9900000000001L661.4400000000002 690.8199999999998C661.7200000000001 690.5699999999998 661.7600000000002 690.1499999999999 661.5100000000002 689.8599999999998ZM643.1 680.35H662.9C663.67 680.35 664.3 680.96 664.3 681.72V683.74H641.6999999999999V681.72C641.6999999999999 680.96 642.3299999999999 680.35 643.0999999999999 680.35ZM639.37 691.45V690.1400000000001C639.37 689.7900000000001 639.66 689.5100000000001 640.02 689.5100000000001H640.3299999999999V692.0800000000002H640.02C639.66 692.0800000000002 639.37 691.8000000000002 639.37 691.4500000000002ZM647.32 705.18C647.32 705.31 647.1 705.4899999999999 646.7600000000001 705.4899999999999H645.5100000000001C645.1700000000001 705.4899999999999 644.9500000000002 705.31 644.9500000000002 705.18V702.87H647.3200000000002ZM661.05 705.18C661.05 705.31 660.8299999999999 705.4899999999999 660.49 705.4899999999999H659.24C658.9 705.4899999999999 658.6800000000001 705.31 658.6800000000001 705.18V702.87H661.0500000000001ZM662.9 701.52H643.1C642.33 701.52 641.7 700.91 641.7 700.15V695.0699999999999H664.3000000000001V700.15C664.3000000000001 700.91 663.6700000000001 701.52 662.9000000000001 701.52ZM666.63 691.45C666.63 691.8000000000001 666.34 692.08 665.98 692.08H665.6700000000001V689.51H665.98C666.34 689.51 666.63 689.79 666.63 690.14Z " fill="#527282" fill-opacity="1" transform="matrix(1,0,0,1,-638,-672.35)"></path><path id="SvgjsPath1320" d="M644.69 680.35H661.33C661.71 680.35 662.0200000000001 680.0500000000001 662.0200000000001 679.6700000000001C662.0200000000001 679.3000000000001 661.7100000000002 679.0000000000001 661.33 679.0000000000001H644.69C644.3100000000001 679.0000000000001 644 679.3000000000001 644 679.6700000000001C644 680.0500000000001 644.31 680.35 644.69 680.35Z " fill="#527282" fill-opacity="1" transform="matrix(1,0,0,1,-638,-672.35)"></path><path id="SvgjsPath1321" d="M648 679.53L654.27 673.25 " fill-opacity="0" fill="#ffffff" stroke-dashoffset="0" stroke-linejoin="round" stroke-linecap="round" stroke-opacity="1" stroke="#527282" stroke-miterlimit="50" stroke-width="1.3" transform="matrix(1,0,0,1,-638,-672.35)"></path><path id="SvgjsPath1322" d="M655 679.53L661.27 673.25 " fill-opacity="0" fill="#ffffff" stroke-dashoffset="0" stroke-linejoin="round" stroke-linecap="round" stroke-opacity="1" stroke="#527282" stroke-miterlimit="50" stroke-width="1.3" transform="matrix(1,0,0,1,-638,-672.35)"></path></svg>