<svg id="SvgjsSvg1192" xmlns="http://www.w3.org/2000/svg" version="1.1" xmlns:xlink="http://www.w3.org/1999/xlink" xmlns:svgjs="http://svgjs.com/svgjs" width="25" height="19" viewBox="0 0 25 19"><title>Shape</title><desc>Created with Avocode.</desc><defs id="SvgjsDefs1193"></defs><path id="SvgjsPath1194" d="M242.5 909.16C241.58 909.5899999999999 240.66 909.74 239.59 909.88C240.66 909.3 241.43 908.4399999999999 241.73 907.29C240.82 907.86 239.73999999999998 908.15 238.51999999999998 908.4399999999999C237.6 907.5799999999999 236.21999999999997 906.9999999999999 234.83999999999997 906.9999999999999C232.23999999999998 906.9999999999999 229.93999999999997 909.1599999999999 229.93999999999997 911.7499999999999C229.93999999999997 912.1799999999998 229.93999999999997 912.4699999999999 230.09999999999997 912.7599999999999C225.95999999999998 912.6099999999999 222.12999999999997 910.7399999999999 219.67999999999998 907.8599999999999C219.23 908.5799999999999 219.06999999999996 909.3 219.06999999999996 910.31C219.06999999999996 911.89 219.98999999999995 913.3299999999999 221.36999999999998 914.1999999999999C220.59999999999997 914.1999999999999 219.83999999999997 913.91 219.06999999999996 913.6199999999999V913.6199999999999C219.06999999999996 915.9299999999998 220.75999999999996 917.7999999999998 223.04999999999995 918.2299999999999C222.58999999999995 918.3699999999999 222.12999999999997 918.3699999999999 221.67999999999995 918.3699999999999C221.36999999999995 918.3699999999999 221.05999999999995 918.3699999999999 220.75999999999996 918.2299999999999C221.36999999999998 920.0999999999999 223.20999999999995 921.5399999999998 225.49999999999997 921.5399999999998C223.81999999999996 922.8399999999998 221.67999999999998 923.5499999999998 219.22999999999996 923.5499999999998C218.76999999999995 923.5499999999998 218.45999999999995 923.5499999999998 217.99999999999997 923.5499999999998C220.29999999999998 924.8499999999998 222.89999999999998 925.7099999999998 225.65999999999997 925.7099999999998C234.83999999999997 925.7099999999998 239.89999999999998 918.5199999999998 239.89999999999998 912.3299999999998C239.89999999999998 912.1799999999998 239.89999999999998 911.8899999999998 239.89999999999998 911.7499999999998C240.96999999999997 911.0299999999997 241.89 910.1699999999997 242.49999999999997 909.1599999999997Z " fill="#619be7" fill-opacity="1" transform="matrix(1,0,0,1,-218,-907)"></path></svg>