<svg id="SvgjsSvg1201" xmlns="http://www.w3.org/2000/svg" version="1.1" xmlns:xlink="http://www.w3.org/1999/xlink" xmlns:svgjs="http://svgjs.com/svgjs" width="22" height="14" viewBox="0 0 22 14"><title>Fill 1</title><desc>Created with Avocode.</desc><defs id="SvgjsDefs1202"></defs><path id="SvgjsPath1203" d="M509 911.03V911.3399999999999C508.86 911.68 508.75 912.03 508.58 912.3499999999999C508.03 913.43 507.28 914.3699999999999 506.58 915.3399999999999C506.21999999999997 915.8499999999999 505.85999999999996 916.3599999999999 505.53999999999996 916.8899999999999C505.34 917.1999999999998 505.35999999999996 917.5499999999998 505.58 917.8499999999999C505.71999999999997 918.06 505.9 918.2499999999999 506.07 918.43C506.68 919.0699999999999 507.32 919.68 507.9 920.3399999999999C508.38 920.8899999999999 508.88 921.4599999999999 509 922.2499999999999V922.2899999999998C508.93 922.6899999999998 508.66 922.8599999999999 508.31 922.9099999999999C508.12 922.9399999999998 507.93 922.9399999999998 507.74 922.9499999999998C506.86 922.9599999999998 505.99 922.9599999999998 505.12 922.9999999999998C504.7 923.0099999999998 504.32 922.9199999999997 503.96 922.7399999999998C503.44 922.4799999999998 503.06 922.0499999999997 502.68 921.6299999999998C502.27 921.1699999999997 501.87 920.6899999999997 501.42 920.2699999999998C500.91 919.7699999999998 500.51 919.8599999999998 500.16 920.4899999999998C500.1 920.6099999999998 500.04 920.7299999999998 500.02000000000004 920.8599999999998C499.96000000000004 921.2599999999998 499.89000000000004 921.6599999999997 499.86 922.0699999999998C499.82 922.6799999999998 499.58000000000004 922.9299999999998 498.98 922.9399999999998C498.5 922.9499999999998 498.02000000000004 922.9599999999998 497.55 922.9399999999998C497.2 922.9299999999998 496.84000000000003 922.9099999999999 496.5 922.8299999999998C494.68 922.4299999999998 493.19 921.4099999999999 491.99 919.9699999999998C490.56 918.2599999999998 489.40000000000003 916.3499999999998 488.42 914.3299999999998C487.93 913.3199999999998 487.47 912.2799999999999 487 911.2499999999998V910.9399999999998C487.19 910.6199999999998 487.5 910.5999999999998 487.81 910.5899999999998C488.73 910.5899999999998 489.66 910.5799999999998 490.58 910.5799999999998C491.22999999999996 910.5799999999998 491.46999999999997 910.7399999999998 491.72999999999996 911.3599999999998C492.29999999999995 912.7199999999998 492.93999999999994 914.0399999999997 493.7 915.2999999999998C493.94 915.6899999999998 494.22999999999996 916.0599999999998 494.64 916.2899999999998C494.95 916.4699999999998 495.21 916.3899999999999 495.36 916.0599999999998C495.43 915.9199999999998 495.48 915.7699999999999 495.51 915.6199999999998C495.57 915.2499999999998 495.63 914.8699999999998 495.65 914.4999999999998C495.71 913.6299999999998 495.7 912.7699999999998 495.51 911.9099999999997C495.40999999999997 911.4699999999997 495.15999999999997 911.1699999999997 494.75 911.0299999999997C494.66 910.9999999999998 494.57 910.9799999999998 494.48 910.9599999999997C494.27000000000004 910.8999999999997 494.25 910.8499999999997 494.39000000000004 910.6799999999997C494.59000000000003 910.4399999999997 494.83000000000004 910.2399999999997 495.13000000000005 910.1899999999997C495.56000000000006 910.1199999999997 495.9800000000001 910.0599999999997 496.41 910.0299999999997C497.27000000000004 909.9799999999998 498.14000000000004 909.9799999999998 499 910.1399999999998C499.56 910.2399999999998 499.78 910.4599999999998 499.88 911.0399999999997C499.89 911.1199999999998 499.9 911.1999999999997 499.9 911.2799999999997C499.89 911.8399999999997 499.88 912.3899999999998 499.87 912.9499999999997C499.86 913.7299999999997 499.84000000000003 914.5099999999996 499.86 915.2899999999997C499.87 915.5599999999997 499.96000000000004 915.8599999999998 500.09000000000003 916.0999999999997C500.24 916.3899999999996 500.52000000000004 916.4199999999997 500.76000000000005 916.1999999999997C501.03000000000003 915.9399999999997 501.31000000000006 915.6699999999997 501.53000000000003 915.3699999999997C502.45000000000005 914.0899999999997 503.17 912.6899999999997 503.73 911.2099999999997C503.93 910.6999999999997 504.06 910.6199999999997 504.59000000000003 910.6199999999997C504.64000000000004 910.6199999999997 504.70000000000005 910.6199999999997 504.76000000000005 910.6199999999997C505.88000000000005 910.6099999999997 507.01000000000005 910.5899999999997 508.13000000000005 910.5899999999997C508.4800000000001 910.5899999999997 508.84000000000003 910.5999999999997 509.00000000000006 911.0299999999997 " fill="#255fab" fill-opacity="1" transform="matrix(1,0,0,1,-487,-910)"></path></svg>